<svg xmlns="http://www.w3.org/2000/svg" width="16" height="16" fill="%%COLOR%%" xmlns:v="https://vecta.io/nano"><path d="M8 16a2 2 0 0 0 2-2H6a2 2 0 0 0 2 2zM8 1.918l-.797.161C5.376 2.448 4 4.065 4 6c0 .628-.134 2.197-.459 3.742-.161.767-.377 1.565-.663 2.258h10.244c-.286-.692-.502-1.491-.663-2.258C12.134 8.197 12 6.628 12 6c0-1.935-1.376-3.552-3.203-3.921L8 1.918zM14.219 12c.223.447.482.801.781 1H1c.299-.199.557-.553.781-1C2.679 10.199 3 6.879 3 6a5 5 0 0 1 4.005-4.901L7 1a1 1 0 1 1 2 0l-.005.099A5 5 0 0 1 13 6c0 .879.321 4.199 1.219 6z"/></svg>
