<svg xmlns="http://www.w3.org/2000/svg" width="16" height="16" fill="none" xmlns:v="https://vecta.io/nano"><path d="M4 4.5a.5.5 0 0 1 .5-.5H6a.5.5 0 1 1 0 1v.5h4.14l.386-1.158A.5.5 0 0 1 11 4h1a.5.5 0 1 1 0 1h-.64l-.312.935.807 1.291A2.99 2.99 0 0 1 13 7a3 3 0 1 1 0 6 3 3 0 0 1-3-3c0-.892.39-1.694 1.008-2.243l-.508-.813-2.076 3.322A.5.5 0 0 1 8 10.5H5.959A3 3 0 0 1 3 13a3 3 0 1 1 0-6 2.99 2.99 0 0 1 1.144.226L5 5.857V5h-.5a.5.5 0 0 1-.5-.5zm1.5 2.443l-.508.813c.5.445.851 1.054.967 1.743h1.139L5.5 6.943zM8 9.057L9.598 6.5H6.402L8 9.057zM4.937 9.5c-.086-.334-.256-.635-.487-.877l-.548.877h1.035zM3.603 8.092A2 2 0 0 0 1 10a2 2 0 0 0 3.937.5H3a.5.5 0 0 1-.424-.765l1.027-1.643zm7.947.53c-.341.359-.55.843-.55 1.377a2 2 0 1 0 4 0 2 2 0 0 0-2.603-1.908l1.027 1.643a.5.5 0 1 1-.848.53L11.55 8.623z" fill="%%COLOR%%"/></svg>
