<svg xmlns="http://www.w3.org/2000/svg" xmlns:xlink="http://www.w3.org/1999/xlink" width="16" height="16" fill="none" xmlns:v="https://vecta.io/nano"><g fill="%%COLOR%%"><path d="M3.5 0a.5.5 0 0 1 .5.5V1h8V.5a.5.5 0 1 1 1 0V1h1a2 2 0 0 1 2 2v11a2 2 0 0 1-2 2H2a2 2 0 0 1-2-2V3a2 2 0 0 1 2-2h1V.5a.5.5 0 0 1 .5-.5zM2 2a1 1 0 0 0-1 1v1h14V3a1 1 0 0 0-1-1H2zm13 3H1v9a1 1 0 0 0 1 1h12a1 1 0 0 0 1-1V5z"/><use xlink:href="#B"/><use xlink:href="#B" x="-3"/><use xlink:href="#B" x="-5" y="3"/><use xlink:href="#B" x="-8" y="3"/></g><defs ><path id="B" d="M11 7.5a.5.5 0 0 1 .5-.5h1a.5.5 0 0 1 .5.5v1a.5.5 0 0 1-.5.5h-1a.5.5 0 0 1-.5-.5v-1z"/></defs></svg>
