<svg xmlns="http://www.w3.org/2000/svg" width="16" height="16" fill="none" xmlns:v="https://vecta.io/nano"><path d="M11.02 5.364a3 3 0 0 0-.017-4.225 3 3 0 0 0-4.225-.018L1.121 6.778a3 3 0 0 0 0 4.243 3 3 0 0 0 4.243 0l5.657-5.657h-.001zm-6.413-.657l2.878-2.879a2 2 0 0 1 2.829 0 2 2 0 0 1 0 2.829L7.435 7.536 4.607 4.707zM12 8a4 4 0 0 1 4 4 4 4 0 0 1-4 4 4 4 0 0 1-4-4 4 4 0 0 1 4-4zm-.5 1.041A3 3 0 0 0 8.994 12a3 3 0 0 0 2.506 2.959V9.04v.001zm1 5.918A3 3 0 0 0 15.006 12 3 3 0 0 0 12.5 9.041v5.918z" fill="%%COLOR%%"/></svg>
