<svg xmlns="http://www.w3.org/2000/svg" width="16" height="16" fill="%%COLOR%%" xmlns:v="https://vecta.io/nano"><path d="M9.5 0a.5.5 0 0 1 .5.5.5.5 0 0 0 .5.5.5.5 0 0 1 .5.5V2a.5.5 0 0 1-.5.5h-5A.5.5 0 0 1 5 2v-.5a.5.5 0 0 1 .5-.5.5.5 0 0 0 .5-.5.5.5 0 0 1 .5-.5h3zM3 2.5a.5.5 0 0 1 .5-.5H4a.5.5 0 1 0 0-1h-.5A1.5 1.5 0 0 0 2 2.5v12A1.5 1.5 0 0 0 3.5 16h9a1.5 1.5 0 0 0 1.5-1.5v-12A1.5 1.5 0 0 0 12.5 1H12a.5.5 0 1 0 0 1h.5a.5.5 0 0 1 .5.5v12a.5.5 0 0 1-.5.5h-9a.5.5 0 0 1-.5-.5v-12zm6.979 2.856a.5.5 0 0 0-.968.039L7.919 10.49l-.94-3.134a.5.5 0 0 0-.926-.08L4.691 10H4.5a.5.5 0 1 0 0 1H5a.5.5 0 0 0 .447-.276l.936-1.872 1.138 3.792a.5.5 0 0 0 .968-.039L9.581 7.51l.94 3.134A.5.5 0 0 0 11 11h.5a.5.5 0 1 0 0-1h-.128L9.979 5.356z"/></svg>
