<svg xmlns="http://www.w3.org/2000/svg" width="16" height="16" fill="%%COLOR%%" xmlns:v="https://vecta.io/nano"><path d="M8.515 1.019L8 1V0l.589.022-.074.997zm2.004.45c-.321-.124-.65-.224-.986-.299l.219-.976c.383.086.76.2 1.126.342l-.36.933zm1.37.711l-.439-.27.493-.87.501.309.477.345-.615.788-.418-.302zm1.834 1.79a6.99 6.99 0 0 0-.653-.796l.724-.69a8 8 0 0 1 .747.91l-.818.576zm.744 1.352l-.215-.469.893-.45.245.535.205.552-.95.314-.179-.483zm.531 2.507a6.99 6.99 0 0 0-.101-1.025l.985-.171a7.99 7.99 0 0 1 .115 1.171l-1 .025zm-.132 1.537l.082-.509.992.122-.094.581-.136.573-.964-.267.119-.501zm-.952 2.379c.184-.29.346-.594.486-.908l.914.405c-.159.359-.345.706-.555 1.038l-.845-.535zm-.964 1.205l.351-.377.757.653-.401.431-.707-.707z"/><path d="M8 1a7 7 0 0 0-6.467 9.679A7 7 0 0 0 12.95 12.95l.707.707A8 8 0 0 1 .609 11.061 8 8 0 0 1 4.229.945 8 8 0 0 1 8 0v1zm-.5 2a.5.5 0 0 1 .5.5v5.21l3.248 1.856a.5.5 0 1 1-.496.868l-3.5-2A.5.5 0 0 1 7 9V3.5a.5.5 0 0 1 .5-.5z"/></svg>
