<svg xmlns="http://www.w3.org/2000/svg" width="16" height="16" fill="%%COLOR%%" xmlns:v="https://vecta.io/nano"><path d="M7.209.8L8 0a10.62 10.62 0 0 0 .371 1.038c.812 1.945 2.073 3.35 3.196 4.6C12.878 7.096 14 8.345 14 10a6 6 0 1 1-12 0C2 6.668 5.58 2.517 7.209.8zm.414 1.021A31.25 31.25 0 0 0 5.794 3.99c-.727.95-1.436 2.009-1.96 3.07C3.305 8.133 3 9.138 3 10a5 5 0 1 0 10 0c0-1.201-.796-2.157-2.181-3.699l-.03-.033C9.749 5.11 8.5 3.72 7.623 1.821zm-3.07 5.955c.821-1.642 1.717-2.754 2.094-3.13l.707.707c-.29.29-1.127 1.312-1.906 2.87l-.894-.447z"/></svg>
