<svg xmlns="http://www.w3.org/2000/svg" width="16" height="16" fill="none" xmlns:v="https://vecta.io/nano"><path d="M8.5 1A4.5 4.5 0 0 0 4 5.5v7.047C4 13.902 5.098 15 6.453 15c1.023 0 1.938-.634 2.297-1.592l.511-1.363c.197-.525.472-1.017.816-1.46l2.008-2.582A4.34 4.34 0 0 0 8.66 1H8.5zM3 5.5A5.5 5.5 0 0 1 8.5 0h.16a5.34 5.34 0 0 1 4.215 8.618l-2.008 2.582c-.282.363-.508.766-.669 1.197l-.511 1.363C9.181 15.107 7.893 16 6.453 16 4.546 16 3 14.454 3 12.547V5.5zM8.5 4A1.5 1.5 0 0 0 7 5.5v2.695l.332-.192c.328-.209.578-.44.721-.727a.5.5 0 1 1 .894.447c-.257.513-.673.865-1.079 1.123-.288.183-.602.337-.868.466V11.5a.5.5 0 1 1-1 0v-6a2.5 2.5 0 1 1 5 0V6a.5.5 0 1 1-1 0v-.5A1.5 1.5 0 0 0 8.5 4z" fill="%%COLOR%%"/></svg>
