<svg xmlns="http://www.w3.org/2000/svg" width="16" height="16" fill="%%COLOR%%" xmlns:v="https://vecta.io/nano"><path d="M13.359 11.238C15.061 9.721 16 8 16 8s-3-5.5-8-5.5c-1.015 0-1.948.227-2.79.588l.771.771A5.94 5.94 0 0 1 8 3.5c2.119 0 3.879 1.168 5.168 2.457.636.636 1.13 1.275 1.465 1.755l.195.288-.195.288a13.11 13.11 0 0 1-1.465 1.755l-.517.486.708.708zm-2.061-2.062A3.5 3.5 0 0 0 8 4.5c-.413 0-.809.071-1.176.203l.822.822A2.52 2.52 0 0 1 8 5.5 2.5 2.5 0 0 1 10.5 8a2.44 2.44 0 0 1-.025.354l.822.822zm-2.944 1.299l.822.822A3.49 3.49 0 0 1 8 11.5 3.5 3.5 0 0 1 4.5 8c0-.413.071-.809.203-1.176l.822.822A2.52 2.52 0 0 0 5.5 8 2.5 2.5 0 0 0 8 10.5a2.52 2.52 0 0 0 .354-.025zM3.349 5.471l-.517.486c-.636.636-1.13 1.275-1.465 1.755L1.173 8l.195.288a13.11 13.11 0 0 0 1.465 1.755C4.121 11.332 5.881 12.5 8 12.5a5.95 5.95 0 0 0 2.02-.359l.771.771a7.02 7.02 0 0 1-2.79.588C3 13.5 0 8 0 8s.939-1.721 2.641-3.238l.708.708zm10.297 8.883l-12-12 .707-.707 12 12-.707.707z"/></svg>
