<svg xmlns="http://www.w3.org/2000/svg" width="16" height="16" fill="%%COLOR%%" xmlns:v="https://vecta.io/nano"><path d="M16 8s-3-5.5-8-5.5S0 8 0 8s3 5.5 8 5.5S16 8 16 8zM1.173 8l.195-.288a13.11 13.11 0 0 1 1.465-1.755C4.121 4.668 5.881 3.5 8 3.5s3.879 1.168 5.168 2.457c.636.636 1.13 1.275 1.465 1.755l.195.288-.195.288a13.11 13.11 0 0 1-1.465 1.755C11.879 11.332 10.119 12.5 8 12.5s-3.879-1.168-5.168-2.457c-.636-.636-1.13-1.275-1.465-1.755L1.173 8zM8 5.5a2.5 2.5 0 1 0 0 5 2.5 2.5 0 1 0 0-5zM4.5 8a3.5 3.5 0 1 1 7 0 3.5 3.5 0 1 1-7 0z"/></svg>
