<svg width="16" height="16" viewBox="0 0 16 16" fill="none" xmlns="http://www.w3.org/2000/svg">
<path fill-rule="evenodd" clip-rule="evenodd" d="M4.50006 0C4.22392 0 4.00006 0.223858 4.00006 0.5C4.00006 0.776142 4.22392 1 4.50006 1H5.00006V6.35932L0.503193 13.7178C-0.107631 14.7174 0.611721 16 1.78312 16H14.217C15.3884 16 16.1077 14.7174 15.4969 13.7178L11.0001 6.35932V1H11.5001C11.7762 1 12.0001 0.776142 12.0001 0.5C12.0001 0.223858 11.7762 0 11.5001 0H4.50006ZM10.0001 2H9.00006C8.72392 2 8.50006 2.22386 8.50006 2.5C8.50006 2.77614 8.72392 3 9.00006 3H10.0001V4H9.00006C8.72392 4 8.50006 4.22386 8.50006 4.5C8.50006 4.77614 8.72392 5 9.00006 5H10.0001V6H9.00006C8.72392 6 8.50006 6.22386 8.50006 6.5C8.50006 6.77614 8.72392 7 9.00006 7H10.2196L10.8308 8H10.0001C9.72392 8 9.50006 8.22386 9.50006 8.5C9.50006 8.77614 9.72392 9 10.0001 9H11.4419L12.053 10H11.0001C10.7239 10 10.5001 10.2239 10.5001 10.5C10.5001 10.7761 10.7239 11 11.0001 11H12.6641L13.2752 12H12.0001C11.7239 12 11.5001 12.2239 11.5001 12.5C11.5001 12.7761 11.7239 13 12.0001 13H13.8863L14.6436 14.2393C14.8473 14.5725 14.6075 15 14.217 15H1.78312C1.39265 15 1.15287 14.5725 1.35647 14.2393L5.9267 6.76073C5.97467 6.68222 6.00006 6.592 6.00006 6.5V1H10.0001V2Z" fill="#1F2F37"/>
</svg>
