<svg xmlns="http://www.w3.org/2000/svg" width="16" height="16" fill="%%COLOR%%" xmlns:v="https://vecta.io/nano"><path d="M8 4.754C6.207 4.754 4.754 6.207 4.754 8S6.207 11.246 8 11.246 11.246 9.793 11.246 8 9.793 4.754 8 4.754zM5.754 8C5.754 6.76 6.76 5.754 8 5.754S10.246 6.76 10.246 8 9.24 10.246 8 10.246 5.754 9.24 5.754 8zm4.042-6.657c-.528-1.791-3.065-1.791-3.593 0l-.094.318c-.157.533-.766.786-1.255.52l-.292-.159c-1.64-.893-3.434.901-2.541 2.541l.159.292c.266.488.014 1.098-.52 1.255l-.318.094c-1.791.528-1.791 3.065 0 3.593l.318.094c.533.157.786.766.52 1.255l-.159.292c-.893 1.64.901 3.434 2.541 2.541l.292-.159c.488-.266 1.098-.014 1.255.52l.094.318c.528 1.791 3.065 1.791 3.593 0l.094-.318c.157-.533.766-.786 1.255-.52l.292.159c1.64.893 3.434-.901 2.541-2.541l-.159-.292c-.266-.488-.014-1.098.52-1.255l.318-.094c1.791-.528 1.791-3.065 0-3.593l-.318-.094c-.533-.157-.786-.766-.52-1.255l.159-.292c.893-1.64-.901-3.434-2.541-2.541l-.292.159c-.488.266-1.098.014-1.255-.52l-.094-.318zm-2.634.283c.246-.835 1.428-.835 1.675 0l.094.318c.337 1.144 1.645 1.686 2.692 1.115l.291-.159c.764-.416 1.6.42 1.184 1.184l-.159.292c-.571 1.048-.029 2.355 1.115 2.692l.318.094c.835.246.835 1.428 0 1.675l-.318.094c-1.145.337-1.686 1.645-1.115 2.692l.159.291c.416.764-.42 1.6-1.184 1.184l-.291-.159c-1.048-.571-2.355-.029-2.692 1.115l-.094.318c-.246.835-1.428.835-1.675 0l-.094-.318c-.337-1.145-1.645-1.686-2.692-1.115l-.292.159c-.764.416-1.6-.42-1.184-1.184l.159-.291c.571-1.048.029-2.355-1.115-2.692l-.318-.094c-.835-.246-.835-1.428 0-1.675l.318-.094C3.089 6.732 3.63 5.424 3.06 4.377l-.159-.292c-.416-.764.42-1.6 1.184-1.184l.292.159c1.048.571 2.355.029 2.692-1.115l.094-.318z"/></svg>
