<svg xmlns="http://www.w3.org/2000/svg" width="16" height="16" fill="none" xmlns:v="https://vecta.io/nano"><path d="M8 2.748l-.717-.737C5.599.28 2.514.878 1.4 3.053.918 3.995.78 5.323 1.508 7H.43c-2.128-5.697 4.164-8.83 7.394-5.857L8 1.314l.176-.171c3.23-2.973 9.522.16 7.394 5.857h-1.078c.729-1.677.591-3.005.108-3.947C13.486.878 10.401.28 8.717 2.011L8 2.748zM2.212 10h1.315C4.593 11.183 6.051 12.458 8 13.795c1.949-1.337 3.407-2.611 4.473-3.795h1.315c-1.265 1.566-3.14 3.25-5.788 5-2.648-1.75-4.523-3.434-5.788-5zm8.252-6.686a.5.5 0 0 0-.945.048L7.921 8.956 6.464 5.314a.5.5 0 0 0-.88-.092L3.732 8H.5a.5.5 0 1 0 0 1H4a.5.5 0 0 0 .416-.223l1.473-2.209 1.647 4.117a.5.5 0 0 0 .945-.048l1.598-5.594 1.457 3.642A.5.5 0 0 0 12 9h3.5a.5.5 0 1 0 0-1h-3.161l-1.874-4.686z" fill="%%COLOR%%"/></svg>
