<svg xmlns="http://www.w3.org/2000/svg" xmlns:xlink="http://www.w3.org/1999/xlink" width="16" height="16" fill="none" xmlns:v="https://vecta.io/nano"><g fill="%%COLOR%%"><path d="M8.5 5.034v1.1l.953-.55.5.866-.953.55.953.55-.5.866-.953-.55v1.1h-1v-1.1l-.953.55-.5-.866.953-.55-.953-.55.5-.866.953.55v-1.1h1z"/><use xlink:href="#B"/><use xlink:href="#C"/><use xlink:href="#B" y="4"/><path d="M2.25 9a.25.25 0 0 0-.25.25v.5a.25.25 0 0 0 .25.25h.5A.25.25 0 0 0 3 9.75v-.5A.25.25 0 0 0 2.75 9h-.5z"/><use xlink:href="#B" x="-11" y="2"/><use xlink:href="#C" x="-11" y="2"/><path d="M5 1a1 1 0 0 1 1-1h4a1 1 0 0 1 1 1v1a1 1 0 0 1 1 1v4h3a1 1 0 0 1 1 1v7a1 1 0 0 1-1 1H1a1 1 0 0 1-1-1V8a1 1 0 0 1 1-1h3V3a1 1 0 0 1 1-1V1zm2 14h2v-3H7v3zm3 0h1V3H5v12h1v-3a1 1 0 0 1 1-1h2a1 1 0 0 1 1 1v3zm0-14H6v1h4V1zm2 7v7h3V8h-3zm-8 7V8H1v7h3z"/></g><defs ><path id="B" d="M13.25 9a.25.25 0 0 0-.25.25v.5a.25.25 0 0 0 .25.25h.5a.25.25 0 0 0 .25-.25v-.5a.25.25 0 0 0-.25-.25h-.5z"/><path id="C" d="M13 11.25a.25.25 0 0 1 .25-.25h.5a.25.25 0 0 1 .25.25v.5a.25.25 0 0 1-.25.25h-.5a.25.25 0 0 1-.25-.25v-.5z"/></defs></svg>
