<svg xmlns="http://www.w3.org/2000/svg" width="16" height="16" fill="%%COLOR%%" xmlns:v="https://vecta.io/nano"><path d="M4.715 6.542L3.343 7.914a3 3 0 0 0 4.243 4.243l1.828-1.828a3 3 0 0 0 0-4.243c-.248-.248-.528-.443-.828-.586L8 6.086a1 1 0 0 0-.154.199 1.99 1.99 0 0 1 .861.508 2 2 0 0 1 0 2.828L6.879 11.45A2 2 0 0 1 4.05 8.621l.793-.793a4.02 4.02 0 0 1-.128-1.286zm1.871-1.87a3 3 0 0 0 0 4.243c.248.248.528.443.828.586l.776-.776a1.99 1.99 0 0 1-.896-.518 2 2 0 0 1 0-2.828L9.121 3.55a2 2 0 0 1 2.828 2.828l-.793.793a4.02 4.02 0 0 1 .128 1.286l1.372-1.372a3 3 0 0 0-4.243-4.243l-1.827 1.83z"/></svg>
