<svg xmlns="http://www.w3.org/2000/svg" width="16" height="16" fill="none" xmlns:v="https://vecta.io/nano"><path d="M12.147.146a.5.5 0 0 1 .707 0l3 3a.5.5 0 0 1 0 .707l-10 10a.5.5 0 0 1-.168.111l-5 2a.5.5 0 0 1-.65-.65l2-5a.5.5 0 0 1 .111-.168l10-10zM11.207 2.5L13.5 4.793 14.793 3.5 12.5 1.207 11.207 2.5zm1.586 3L10.5 3.207 4 9.707V10h.5a.5.5 0 0 1 .5.5v.5h.5a.5.5 0 0 1 .5.5v.5h.293l6.5-6.5zm-9.761 5.176l-.106.106-1.529 3.821 3.821-1.529.106-.106A.5.5 0 0 1 5 12.5V12h-.5a.5.5 0 0 1-.5-.5V11h-.5a.5.5 0 0 1-.468-.325z" fill="%%COLOR%%"/></svg>
