<svg xmlns="http://www.w3.org/2000/svg" width="16" height="16" fill="%%COLOR%%" xmlns:v="https://vecta.io/nano"><path d="M15 14s1 0 1-1-1-4-5-4-5 3-5 4 1 1 1 1h8zm-7.978-1L7 12.997c.001-.264.167-1.03.759-1.721C8.313 10.629 9.283 10 11 10s2.687.629 3.241 1.276c.592.691.758 1.457.759 1.721l-.022.004H7.022zM11 7a2 2 0 1 0 0-4 2 2 0 1 0 0 4zm3-2a3 3 0 1 1-6 0 3 3 0 1 1 6 0zM6.936 9.28a5.88 5.88 0 0 0-1.23-.247A7.35 7.35 0 0 0 5 9c-4 0-5 3-5 4 0 .667.333 1 1 1h4.216c-.14-.284-.216-.621-.216-1 0-1.01.377-2.042 1.09-2.904a5.29 5.29 0 0 1 .846-.816zm-2.016.721C4.323 10.914 4 11.955 4 13H1c0-.261.164-1.03.759-1.724.545-.636 1.493-1.256 3.161-1.275zM1.5 5.5a3 3 0 1 1 6 0 3 3 0 1 1-6 0zm3-2a2 2 0 1 0 0 4 2 2 0 1 0 0-4z"/></svg>
