<svg xmlns="http://www.w3.org/2000/svg" width="16" height="16" fill="%%COLOR%%" xmlns:v="https://vecta.io/nano"><path d="M8 15A7 7 0 1 1 8 1a7 7 0 1 1 0 14zm0 1A8 8 0 1 0 8 0a8 8 0 1 0 0 16zM5.255 5.786c-.008.136.105.247.241.247h.824c.138 0 .248-.113.266-.249.089-.656.539-1.134 1.342-1.134.686 0 1.314.343 1.314 1.168 0 .635-.375.927-.965 1.371-.673.489-1.206 1.06-1.168 1.987l.003.217a.25.25 0 0 0 .25.247h.811a.25.25 0 0 0 .25-.25v-.105c0-.717.273-.927 1.009-1.485.609-.463 1.244-.978 1.244-2.057 0-1.511-1.276-2.241-2.672-2.241-1.267 0-2.656.591-2.75 2.286zm1.557 5.763c0 .533.425.927 1.009.927.609 0 1.028-.394 1.028-.927 0-.552-.419-.939-1.028-.939-.584 0-1.009.387-1.009.939z"/></svg>
