<svg xmlns="http://www.w3.org/2000/svg" width="16" height="16" fill="none" xmlns:v="https://vecta.io/nano"><path d="M13.5 1a1.5 1.5 0 1 0 0 3 1.5 1.5 0 1 0 0-3zM11 2.5a2.5 2.5 0 1 1 5 0A2.5 2.5 0 0 1 13.5 5c-.759 0-1.439-.338-1.897-.872l-6.718 3.12a2.5 2.5 0 0 1 0 1.504l6.718 3.12c.458-.534 1.138-.872 1.897-.872a2.5 2.5 0 1 1 0 5 2.5 2.5 0 0 1-2.385-3.252l-6.718-3.12c-.458.534-1.138.872-1.897.872a2.5 2.5 0 1 1 0-5c.759 0 1.439.338 1.897.872l6.718-3.12A2.5 2.5 0 0 1 11 2.5zm-8.5 4a1.5 1.5 0 1 0 0 3 1.5 1.5 0 1 0 0-3zm11 5.5a1.5 1.5 0 1 0 0 3 1.5 1.5 0 1 0 0-3z" fill="%%COLOR%%"/></svg>
