<svg xmlns="http://www.w3.org/2000/svg" width="16" height="16" fill="none" xmlns:v="https://vecta.io/nano"><path d="M6.5 1h3a.5.5 0 0 1 .5.5v1H6v-1a.5.5 0 0 1 .5-.5zM11 2.5v-1A1.5 1.5 0 0 0 9.5 0h-3A1.5 1.5 0 0 0 5 1.5v1H2.506 1.5a.5.5 0 1 0 0 1h.538l.853 10.66A2 2 0 0 0 4.885 16h6.23a2 2 0 0 0 1.994-1.841L13.962 3.5h.538a.5.5 0 1 0 0-1h-.995H11zm1.958 1l-.846 10.58a1 1 0 0 1-.997.92h-6.23a1 1 0 0 1-.997-.92L3.042 3.5h9.917zM5.471 4.501a.5.5 0 0 1 .528.47l.5 8.5a.5.5 0 1 1-.998.059l-.5-8.5a.5.5 0 0 1 .47-.528zm5.059 0a.5.5 0 0 1 .47.528l-.5 8.5a.5.5 0 0 1-.998-.059l.5-8.5a.5.5 0 0 1 .529-.47zM8 4.5a.5.5 0 0 1 .5.5v8.5a.5.5 0 1 1-1 0V5a.5.5 0 0 1 .5-.5z" fill="%%COLOR%%"/></svg>
