<svg xmlns="http://www.w3.org/2000/svg" width="16" height="16" fill="none" xmlns:v="https://vecta.io/nano"><path fill-rule="evenodd" d="M8 0a1 1 0 0 1 1 1v1.402c0 .511.677.693.933.25l.7-1.214A1 1 0 0 1 12 1.072a1 1 0 0 1 .367 1.367l-.701 1.214c-.256.443.24.939.683.683l1.214-.701a1 1 0 0 1 1.36.369 1 1 0 0 1-.36 1.363l-1.214.701c-.443.256-.262.933.25.933H15a1 1 0 0 1 1 1 1 1 0 0 1-1 1h-1.402c-.512 0-.693.677-.25.933l1.214.701a1 1 0 0 1 .471.607 1 1 0 0 1-.099.762 1 1 0 0 1-.61.467 1 1 0 0 1-.761-.104l-1.214-.7a.5.5 0 0 0-.683.682l.701 1.214a1 1 0 0 1 .104.761 1 1 0 0 1-.467.611 1 1 0 0 1-.762.099 1 1 0 0 1-.607-.471l-.701-1.214c-.256-.443-.933-.262-.933.25V15a1 1 0 0 1-1 1 1 1 0 0 1-1-1v-1.402c0-.512-.677-.693-.933-.25l-.701 1.214a1 1 0 0 1-1.363.36 1 1 0 0 1-.369-1.36l.7-1.214a.5.5 0 0 0-.682-.683l-1.214.701a1 1 0 0 1-.761.104 1 1 0 0 1-.61-.467 1 1 0 0 1-.099-.762 1 1 0 0 1 .471-.607l1.214-.701c.443-.256.261-.933-.25-.933H1a1 1 0 0 1-1-1 1 1 0 0 1 1-1h1.402c.511 0 .693-.677.25-.933l-1.214-.701a1 1 0 0 1-.471-.607 1 1 0 0 1 .099-.762 1 1 0 0 1 .61-.467 1 1 0 0 1 .761.104l1.214.701c.443.256.939-.24.683-.683l-.701-1.214a1 1 0 0 1 .369-1.36 1 1 0 0 1 1.363.36l.701 1.214c.256.443.933.261.933-.25V1a1 1 0 0 1 1-1h0zm2 5a1 1 0 0 1-1 1 1 1 0 0 1-1-1 1 1 0 0 1 1-1 1 1 0 0 1 1 1zM6 7a1 1 0 0 1-1 1 1 1 0 0 1-1-1 1 1 0 0 1 1-1 1 1 0 0 1 1 1zm1 4a1 1 0 0 0 1-1 1 1 0 0 0-1-1 1 1 0 0 0-1 1 1 1 0 0 0 1 1zm5-3a1 1 0 0 1-1 1 1 1 0 0 1-1-1 1 1 0 0 1 1-1 1 1 0 0 1 1 1z" fill="%%COLOR%%"/></svg>
