<svg xmlns="http://www.w3.org/2000/svg" width="16" height="16" fill="none" xmlns:v="https://vecta.io/nano"><path d="M7.987 16c-.387-.003-.774-.153-1.069-.448L.449 9.083a1.53 1.53 0 0 1 0-2.166L6.917.449a1.53 1.53 0 0 1 2.166 0l6.469 6.469c.296.296.445.682.448 1.069v.027c-.003.387-.153.774-.448 1.069l-6.469 6.469c-.296.296-.682.445-1.069.448h-.027zM7.639 1.17L4.766 4.044 8 7.278l3.234-3.234L8.361 1.17a.51.51 0 0 0-.722 0zM8.722 8l3.234 3.234 2.873-2.873a.51.51 0 0 0 0-.722l-2.873-2.873L8.722 8zM8 8.722l-3.234 3.234 2.873 2.873a.51.51 0 0 0 .722 0l2.873-2.873L8 8.722zM7.278 8L4.044 4.766 1.17 7.639a.51.51 0 0 0 0 .722l2.873 2.873L7.278 8z" fill="%%COLOR%%"/></svg>
