<svg viewBox="0 0 93 86" fill="none" xmlns="http://www.w3.org/2000/svg">
<path d="M50.663 1h41.1v23.2c0 4.1-1.4 8.1-4 11.3-3.3 4.2-8.2 6.8-13.6 6.9-.6 0-.8.2-.8.8v21.4c0 .6.2.8.8.8h6c.9 0 1.8.5 2.1 1.3.4.7.3 1.6-.2 2.3-.4.6-1.1 1-1.8 1h-18.3c-1.2 0-2.3-1-2.3-2.2 0-1.2.9-2.2 2.1-2.3h6.3c.6 0 .7-.1.7-.7V43.4c0-.6-.2-.8-.8-.8-8-.3-14.9-5.8-16.9-13.5-.4-1.4-.6-2.9-.6-4.4-.1-6 0-16.8 0-22.8.2-.4.2-.6.2-.9zm20.5 4.6h-15.3c-.4 0-.7 0-.7.6v18.3c.1 6.8 5.2 12.4 11.9 13.3 2.3.2 4.6.3 6.9.1 7.4-.3 13.2-6.3 13.2-13.7v-18c0-.5-.1-.7-.7-.7-5 .1-10.2.1-15.3.1z" fill="%%COLOR%%"/>
<path d="M60.663 9.4c.5 0 .9.4.9.9v12.2c0 .5-.4.9-.9.9s-.9-.4-.9-.9V10.3c0-.5.4-.9.9-.9zM60.663 24.5c.5 0 .9.4.9.9v1.8c0 .5-.4.9-.9.9s-.9-.4-.9-.9v-1.8c0-.5.4-.9.9-.9zM29.056 71.232l-2.958-12.815a2.052 2.052 0 0 1 1.537-2.46l31.694-7.313a2.052 2.052 0 0 1 2.46 1.537l2.957 12.815a2.052 2.052 0 0 1-1.537 2.46l-31.694 7.313c-1.134.117-2.152-.519-2.46-1.537zm-.52-12.942 2.767 11.988 30.867-7.123-2.767-11.988-30.867 7.123z" fill="%%COLOR%%"/>
<path d="m61.634 60.679-1.654-7.166 6.753-1.558 1.653 7.166-6.752 1.558zm1.23-5.364.572 2.48 1.93-.445-.573-2.48-1.93.445z" fill="%%COLOR%%"/>
<path d="M64.786 49.055c.689-.159 1.282.212 1.441.901l2.576 11.162c.159.689-.212 1.283-.901 1.442-.689.159-1.283-.212-1.442-.901l-2.575-11.162c-.212-.604.212-1.283.9-1.442zM54.997 65.89l2.338-.54-1.439-6.236-2.338.54 1.439 6.236zM48.903 67.296l2.339-.54-1.44-6.236-2.338.54 1.44 6.236zM42.809 68.702l2.338-.54-1.44-6.235-2.338.54 1.44 6.235zM36.715 70.109l2.338-.54-1.439-6.236-2.338.54 1.439 6.236zM19.515 63.846a2.052 2.052 0 0 1 1.537-2.459l3.583-.827a.785.785 0 0 1 .933.583l.19.827a.785.785 0 0 1-.582.933l-3.223.816 1.05 4.547 3.169-.731a.785.785 0 0 1 .933.583l.19.827a.785.785 0 0 1-.582.933l-3.583.826a2.052 2.052 0 0 1-2.46-1.537l-1.155-5.32z" fill="%%COLOR%%"/>
<path d="m4.704 71.293-3.848-1.58 20.119-4.642.54 2.343-16.811 3.88z" fill="%%COLOR%%"/>
</svg>