<svg fill="none" viewBox="0 0 57 100" xmlns="http://www.w3.org/2000/svg">
<path d="m28.599 37.102v7.5c0.4 1.2 1 2.3 1.7 3.3 0 0 11.6-5.9 18.9 0.8s6.1 17.2 5.7 23.7c-0.7 10.9-11.2 26.8-27.3 25.7s-15.7-12.2-18.9-11.8c-1.6 0.2-3.2 0.6-4.7 1.2" stroke="%%COLOR%%" stroke-linecap="round" stroke-linejoin="round" stroke-width="2"/>
<path d="m28.499 1.102v10.8" stroke="%%COLOR%%" stroke-linecap="round" stroke-linejoin="round" stroke-width="2"/>
<path d="m21.399 37.102v7.8c0 2 0.3 4 0.9 5.9 1.3 3.6 6.2 9 6.2 11.8s-3.8 17-8.5 16.8-10.8-1.2-13.2-1-5.3 2.4-5.3 2.4" stroke="%%COLOR%%" stroke-linecap="round" stroke-linejoin="round" stroke-width="2"/>
<path d="m21.299 1.102v9" stroke="%%COLOR%%" stroke-linecap="round" stroke-linejoin="round" stroke-width="2"/>
<path d="m42.199 85.702c-2.7 2.9-6.6 5.4-13.7 5.4" stroke="%%COLOR%%" stroke-linecap="round" stroke-linejoin="round" stroke-width="2"/>
<path d="m50.099 65.902s-0.4 10.5-3.6 14.4" stroke="%%COLOR%%" stroke-linecap="round" stroke-linejoin="round" stroke-width="2"/>
<path d="m35.699 15.502h3.6v3.6" stroke="%%COLOR%%" stroke-linecap="round" stroke-linejoin="round" stroke-width="2"/>
<path d="m14.099 15.502h-3.6v3.6" stroke="%%COLOR%%" stroke-linecap="round" stroke-linejoin="round" stroke-width="2"/>
<path d="m35.699 33.502h3.6v-3.6" stroke="%%COLOR%%" stroke-linecap="round" stroke-linejoin="round" stroke-width="2"/>
<path d="m14.099 33.502h-3.6v-3.6" stroke="%%COLOR%%" stroke-linecap="round" stroke-linejoin="round" stroke-width="2"/>
<path d="m20.899 23.102c1 0 1.8 0.8 1.8 1.8" stroke="%%COLOR%%" stroke-linecap="round" stroke-linejoin="round" stroke-width="2"/>
<path d="m31.899 23.102c0.4-0.6 0.7-1.3 0.7-2 0-2-1.6-3.6-3.6-3.6-0.7 0-1.4 0.2-1.9 0.6 0.1-0.2 0.1-0.4 0.1-0.6 0-2-1.6-3.6-3.6-3.6-1.3 0-2.5 0.7-3.1 1.9-0.2 0-0.3-0.1-0.5-0.1-2 0-3.6 1.6-3.6 3.6 0 0.7 0.3 1.4 0.7 2-1.5 0.5-2.5 1.8-2.5 3.4 0 2 1.6 3.6 3.6 3.6 0.2 0 0.4-0.1 0.6-0.1-0.4 0.6-0.6 1.2-0.6 1.9 0 2 1.6 3.6 3.6 3.6 1 0 2-0.5 2.7-1.3 0.7 0.8 1.7 1.3 2.7 1.3 2 0 3.6-1.6 3.6-3.6 2 0 3.6-1.6 3.6-3.6 0-1.6-1-3-2.5-3.4z" stroke="%%COLOR%%" stroke-linecap="round" stroke-linejoin="round" stroke-width="2"/>
<path d="m25.099 29.402c0-1 0.8-1.8 1.8-1.8s1.8 0.8 1.8 1.8" stroke="%%COLOR%%" stroke-linecap="round" stroke-linejoin="round" stroke-width="2"/>
<path d="m29.299 24.002c-0.9 0.4-2 0.1-2.4-0.8-0.4-0.8-0.1-1.8 0.7-2.3" stroke="%%COLOR%%" stroke-linecap="round" stroke-linejoin="round" stroke-width="2"/>
<path d="m21.199 18.602c0.3 0.9 1.1 1.5 2.1 1.6" stroke="%%COLOR%%" stroke-linecap="round" stroke-linejoin="round" stroke-width="2"/>
</svg>
