<svg viewBox="0 0 87 80" xmlns="http://www.w3.org/2000/svg">
<path d="m62.4 2.9c12.3 0 22.2 9.9 22.2 22.2 0 2.8-0.5 5.6-1.6 8.2-5.2 19.2-39.3 43.2-39.3 43.2s-35.4-25-39.7-44.3c-3.4-11.7 3.3-24.1 15.1-27.5 9.2-2.7 19.1 0.8 24.5 8.7 4-6.5 11.2-10.5 18.8-10.5zm0.1-1.7c-7.4 0-14.4 3.4-18.9 9.3-8.6-10.1-23.7-11.3-33.8-2.7-7.2 6.1-10.1 15.8-7.5 24.9 4.4 19.8 38.9 44.2 40.4 45.3l1 0.7 1-0.7c1.4-1 34.6-24.6 40.1-44.1 4.7-12.4-1.3-26.2-13.6-31.1-2.8-1-5.8-1.6-8.7-1.6z" fill="%%COLOR%%"/>
<path d="m75.12 36.215c-1.1 0-2 0.6-2.5 1.5h-13l-2.6-18.5-4.1 26.2-3.2-31.8-8.5 27.8-3.9-23.9-5.3 28.3-2.4-26.1-4.5 16.5h-9.7c-0.5-1.5-2-2.2-3.5-1.8-1.5 0.5-2.2 2-1.8 3.5s2 2.2 3.5 1.8c0.8-0.3 1.5-0.9 1.8-1.8h11.1l2.4-8.7 2.7 29 5.7-30.8 3.5 21.5 8.1-26.7 3.7 36.5 4.4-27.8 1.2 8.5h14.3c0.3 1.5 1.7 2.5 3.2 2.2s2.5-1.7 2.2-3.2c-0.3-1.3-1.5-2.2-2.8-2.2z" fill="%%COLOR%%"/>
</svg>
