<svg viewBox="0 0 47 55" xmlns="http://www.w3.org/2000/svg">
<path d="m35 0.70001h-30c-2.5 0-4.6 2.1-4.6 4.6v39.5c0 2.5 2.1 4.6 4.6 4.6h30c2.5 0 4.6-2.1 4.6-4.6v-39.6c0-2.5-2.1-4.5-4.6-4.5zm1.8 44.1c0 1-0.8 1.8-1.8 1.8h-30c-1 0-1.8-0.8-1.8-1.8v-39.6c0-1 0.8-1.8 1.8-1.8h30c1 0 1.8 0.8 1.8 1.8v39.6z" fill="%%COLOR%%"/>
<path d="m29.3 12.3h-20.2c-3.4 0-3.4 2.8 0 2.8h20.2c3.4 0 3.4-2.8 0-2.8z" fill="%%COLOR%%"/>
<path d="m29.3 24.9h-20.2c-3.4 0-3.4 2.8 0 2.8h20.2c3.4-0.1 3.4-2.8 0-2.8z" fill="%%COLOR%%"/>
<path d="m29.3 37.4h-20.2c-3.4 0-3.4 2.8 0 2.8h20.2c3.4 0 3.4-2.8 0-2.8z" fill="%%COLOR%%"/>
<path d="m33.8 54.9c7.1245 0 12.9-5.7755 12.9-12.9s-5.7755-12.9-12.9-12.9-12.9 5.7755-12.9 12.9 5.7755 12.9 12.9 12.9z" fill="%%COLOR%%"/>
<path d="m41.4 38.9c-2.4 2.9-5 5.9-7.4 8.7-0.6 0.6-1.9 0.8-2.6 0-1.8-2.2-3.6-4.3-5.2-6.5-1.4-1.8 1-4.3 2.6-2.6 1.4 1.7 2.7 3.3 4.1 5 2-2.4 4.1-4.9 6.1-7.1 1.3-1.8 3.8 0.8 2.4 2.5z" fill="#fff"/>
</svg>
