<svg width="25" height="25" viewBox="0 0 25 25" fill="none" xmlns="http://www.w3.org/2000/svg">
<path d="M23.8125 22.5938L17.7656 16.5469C17.6719 16.4531 17.5312 16.4062 17.3906 16.4062H16.875C18.5156 14.625 19.5 12.3281 19.5 9.75C19.5 4.40625 15.0938 0 9.75 0C4.35938 0 0 4.40625 0 9.75C0 15.1406 4.35938 19.5 9.75 19.5C12.2812 19.5 14.625 18.5156 16.3594 16.9219V17.3906C16.3594 17.5781 16.4062 17.7188 16.5 17.8125L22.5469 23.8594C22.7812 24.0938 23.1094 24.0938 23.3438 23.8594L23.8125 23.3906C24.0469 23.1562 24.0469 22.8281 23.8125 22.5938ZM9.75 18C5.15625 18 1.5 14.3438 1.5 9.75C1.5 5.20312 5.15625 1.5 9.75 1.5C14.2969 1.5 18 5.20312 18 9.75C18 14.3438 14.2969 18 9.75 18Z" fill="%%COLOR%%"/>
</svg>
