<svg viewBox="0 0 38 35" xmlns="http://www.w3.org/2000/svg">
<path d="m31.2 8.2c0 1.7 1.4 3.2 3.2 3.2 1.7 0 3.2-1.4 3.2-3.2 0-1.7-1.4-3.2-3.2-3.2-1.8 0.1-3.2 1.5-3.2 3.2zm4.7 0c0 0.9-0.7 1.6-1.6 1.6s-1.6-0.7-1.6-1.6 0.7-1.6 1.6-1.6 1.6 0.7 1.6 1.6zm-3.9-3.1c1.3 0 2.4-1.1 2.4-2.4s-1.1-2.4-2.4-2.4-2.4 1.1-2.4 2.4 1.1 2.4 2.4 2.4zm0-3.2c0.4 0 0.8 0.4 0.8 0.8s-0.4 0.8-0.8 0.8-0.8-0.4-0.8-0.8 0.4-0.8 0.8-0.8zm4.1 13.2c0.2-1.4-0.7-2.8-2.1-3h-4.8c0-0.5-0.1-1.1-0.4-1.6l0.1-0.4 0.7-2.1c0.4-1.4-0.3-2.8-1.7-3.3-0.1 0-0.3-0.1-0.4-0.1-0.2-1.1-1.1-2-2.2-2.1-0.2-1.1-1.1-2-2.3-2.2h-0.3c-0.7 0-1.4 0.3-1.8 0.8-0.3-0.1-0.6-0.2-0.9-0.3h-0.3c-1.1 0-2.2 0.8-2.5 1.9l-1.3 4.1c-0.3-0.1-0.6-0.2-0.9-0.2-1.4 0-2.6 1.1-2.7 2.6v4.8c0 1.6 0.6 3.2 1.7 4.4-1.8 1.2-2.2 3.7-1 5.5s3.7 2.2 5.5 1c0.3-0.2 0.5-0.4 0.7-0.7 1.1 0.9 2.5 1.4 4 1.4h9c1.4 0 2.6-1.2 2.6-2.6v-0.4c1-0.5 1.6-1.6 1.4-2.8 1.3-0.6 1.8-2.2 1.1-3.5-0.3-0.5-0.7-0.9-1.2-1.2zm-9-8.9h0.1c0.6 0.1 1 0.6 0.9 1.1v0.2l-0.6 1.9c-0.5-0.2-1.1-0.2-1.6 0l-0.6 0.2 0.8-2.6c0.2-0.5 0.6-0.8 1-0.8zm-13.2 7.8v-4.9c0-0.6 0.5-1 1.1-1s1 0.5 1 1l0.1 2.2 2.6-8.2c0.1-0.4 0.5-0.8 1-0.8h0.1c0.6 0.1 1 0.6 0.9 1.1v0.2l-1.7 5.4c-0.1 0.2 0 0.4 0.2 0.4 0.2 0.1 0.4 0 0.4-0.2l2.1-6.5c0.1-0.4 0.5-0.8 1-0.8h0.1c0.6 0.1 1 0.6 0.9 1.1v0.2l-1.9 5.9c-0.1 0.2 0 0.4 0.2 0.4 0.2 0.1 0.4 0 0.4-0.2l1.4-4.6c0.1-0.4 0.5-0.8 1-0.8h0.1c0.6 0.1 1 0.6 0.9 1.1v0.2l-1.4 4.4-3.3 1c-2.9 0.9-4.8 3.6-4.8 6.6v0.3h-0.2c-0.3 0-0.5 0-0.8 0.1-0.8-0.8-1.4-2.2-1.4-3.6zm2.3 10c-1.3 0-2.4-1.1-2.4-2.4s1.1-2.4 2.4-2.4 2.4 1.1 2.4 2.4-1.1 2.4-2.4 2.4zm18.7-5.5h-6.9c-0.2 0-0.3 0.2-0.3 0.3 0 0.2 0.2 0.3 0.3 0.3h5.5c0.5 0 0.9 0.3 1.1 0.8 0.1 0.6-0.2 1.1-0.8 1.2h-5.8c-0.2 0-0.3 0.2-0.3 0.3 0 0.2 0.2 0.3 0.3 0.3h4.1c0.5 0 0.9 0.3 1.1 0.8 0.1 0.6-0.2 1.1-0.8 1.2h-9.2c-1.2 0-2.3-0.4-3.2-1.2 0.6-1.8-0.2-3.9-2-4.7v-0.7c0-2.3 1.5-4.4 3.7-5.1l4.6-1.4h0.3c0.6 0 1 0.5 1 1s-0.3 0.9-0.7 1l-2 0.7h8.6c0.5 0 0.9 0.3 1.1 0.8 0.1 0.6-0.2 1.1-0.8 1.2h-5.8c-0.2 0-0.3 0.2-0.3 0.3s0.2 0.3 0.3 0.3h6.9c0.5 0 0.9 0.3 1.1 0.8 0.1 0.6-0.2 1.1-0.8 1.2-0.2 0.6-0.2 0.6-0.3 0.6z" fill="%%COLOR%%"/>
<path d="m12.6 33.17c6.0751 0 11-4.9249 11-11s-4.9249-11-11-11c-6.0751 0-11 4.9249-11 11s4.9249 11 11 11z" fill="#fff"/>
<path d="m12.6 10.167c-6.6102 0-12 5.3898-12 12s5.3898 12 12 12 12-5.3898 12-12-5.3898-12-12-12zm5.8983 15.153c0.2034 0.2033 0.2034 0.6101 0 0.8135l-1.9322 1.9322c-0.2034 0.2034-0.6102 0.2034-0.8136 0l-3.1525-3.1525-3.1525 3.1525c-0.20339 0.2034-0.61017 0.2034-0.81356 0l-1.9322-1.9322c-0.20339-0.2034-0.20339-0.6102 0-0.8135l3.1525-3.1526-3.1525-3.1525c-0.20339-0.2034-0.20339-0.6102 0-0.8136l1.9322-1.9322c0.20339-0.2034 0.61017-0.2034 0.81356 0l3.1525 3.1525 3.1525-3.1525c0.2034-0.2034 0.6102-0.2034 0.8136 0l1.9322 1.9322c0.2034 0.2034 0.2034 0.6102 0 0.8136l-3.1525 3.1525 3.1525 3.1526z" fill="%%COLOR%%"/>
</svg>
