<svg viewBox="0 0 78 90" xmlns="http://www.w3.org/2000/svg">
<path d="m37.778 3.394c1.6 0.2 3.2 0.30004 4.7 0.60004 7.1 1.3 11.7 7 9.9 14.1 0 0.3 0.2 0.6 0.4 0.8 3.5 1.7 4.5 5.3 3.1 9-0.8 2.1-2.1 4.1-3.6 5.8-0.5 0.5-0.6 1.2-0.4 1.8 1 3.7-0.1 7.6-3 10.1-0.7 0.7-1.8 1.3-2.1 2.2-1.3 3.6-4.5 6.2-8.3 6.6-5.1 0.8-9.6-0.6-13.8-3.5-0.4-0.3-0.8-0.5-1.3-0.6-1.1 0-2.1 0.1-3.2 0.1-3.6 0.1-7.1-0.9-10-2.9-4.4-2.9-7.4-7.5-8.3-12.7-0.1-1.2-0.39998-2.4-0.69998-3.6-1.3-3.1-1.5-6.6-0.5-9.9 0.1-0.4 0.19998-0.8 0.19998-1.2 0-2 0.5-4 1.5-5.8 3.1-5.6 8-8.8 14.2-10.2 0.9-0.2 1.7-0.6 2.5-1 4.8-3.1 9.7-2.9 14.6-0.29998 1 0.6 2.1 0.89998 3.2 0.79998h0.8l0.1-0.20001zm-15.9 45.1c-0.6-0.8-1.1-1.6-1.7-2.3-0.2-0.2-0.5-0.3-0.9-0.4-3.2-0.6-5.9-2.5-7.6-5.3-0.2-0.3-0.4-0.6-0.8-0.7-2.7-0.8-5.1-2.2-7.2-4 0.6 7.1 12.4 15.3 18.2 12.7zm21.2 0.4c-2.8 0.7-5.5 0.8-7.9-1-0.8-0.7-1.9-0.8-2.8-0.3-1.7 0.7-3.5 1.2-5.3 1.9-0.3 0.1-0.7 0.3-0.9 0.6l0.6 0.3c3.9 2.3 7.9 3.4 12.4 2.3 2.3-0.5 4.3-2.1 5.4-4.2-0.7 0.1-1.1 0.3-1.5 0.4zm-32.3-34.9c-2.3 1-4.4 2.5-6.3 4.3-2.5 2.6-3.5 6.2-2.7 9.7 0.2 0 0.30002 0 0.30002-0.1 1.6-2.3 3.9-2.4 6.3-2 0.7 0.1 1.4 0.3 2 0.5 1.2 0.4 1.3 0.4 1.4-1.1-0.4 0-0.8-0.1-1.1-0.1-2.2-0.1-3.6-1.1-4.1-2.8-0.5-2 0.3-4.2 2.1-5.2 0.9-0.5 1.9-0.9 2.8-1.1 0.6-0.2 0.8-0.4 0.9-1 0-0.6 0.1-1.3 0.2-2.2-0.6 0.5-1.2 0.7-1.8 1.1zm-0.4 22.4c-0.3-2.3-0.1-4.7 0.5-7 0.2-0.8-0.1-1.2-0.8-1.4-1.5-0.7-3.2-0.8-4.8-0.5-1.7 0.6-2.6 2.6-2 4.3 0 0.1 0.1 0.2 0.1 0.3 1.4 2.9 4.1 5 7.3 5.8-0.1-0.6-0.2-1.1-0.3-1.5zm27.7-28.7c0.3 0.3 0.6 0.40005 1 0.30005 2-0.3 3.9 0.09995 5.6 1.2 1.7 1 2.7 2.8 2.8 4.8 0.1 0.5 0.3 1 0.6 1.5 0.7 0.9 1.5 1.7 2.5 2.8 0.2-0.8 0.3-1.5 0.5-2.3 0.4-3.9-1.8-7.6-5.4-9.2-2.6-1.2-5.4-1.7-8.2-1.6-0.1 0-0.3 4e-5 -0.4 0.10004-0.1 0-0.1 0.10001-0.3 0.20001 0.5 0.6 0.9 1.4 1.3 2.2zm-12.9 2.3c-0.2 0-0.3 0.09998-0.4 0.19998-2 1.7-3.8 3.6-5.3 5.7 0.6 0.1 1.1 0.2 1.6 0.3 1.8 0.4 3.6 0.8 5.4 1.2 0.3 0.1 0.7 0 0.9-0.2 1.4-1.8 2.8-3.6 4.3-5.5-2-1.1-4.2-1.7-6.5-1.7zm8.4 19.4c-0.1 0.2-0.1 0.4-0.1 0.6 0.1 1 0.2 2.1 0.4 3.1 0.1 0.3 0.4 0.5 0.7 0.6 0.8 0 1.6 0 2.4-0.1 0.3 0 0.5-0.2 0.6-0.4 1.4-2.4 2.8-4.8 4.2-7.4l-4.4-2.5c-1.4 2.1-2.6 4.1-3.8 6.1zm-14.9-11.9c-0.3 0-0.7 0.3-0.8 0.5-0.8 1.3-1.7 2.6-2.4 4-0.2 0.4-0.2 0.8 0 1.2 0.1 0.2 0.7 0.3 1 0.3 2.5 0 5-0.1 7.5-0.2 0.3 0 0.6-0.1 0.7-0.3 0.5-1.3 1-2.6 1.7-4.2-2.7-0.5-5.2-0.9-7.7-1.3zm24.5 17c0-0.2-0.5-0.4-0.7-0.4-1.2 0.2-2.5 0.5-3.7 0.8-0.3 0.1-0.6 0.4-0.8 0.7-0.8 1.7-1.5 3.4-2.3 5-0.3 0.6-0.1 0.8 0.4 1.2 1.1 1 2.8 1 3.8 0 1.1-0.9 2.4-1.6 3.6-2.5l0.6-0.6c-0.3-1.6-0.6-2.9-0.9-4.2zm-13.9 5.4c0.1-0.3 0.1-0.6-0.1-0.8-0.9-0.8-1.8-1.5-2.7-2.2-0.3-0.1-0.6-0.2-1 0-1.8 0.8-3.5 1.7-5.2 2.5-0.5 0.2-0.7 0.4-0.5 1 0.3 1.1 0.6 2.2 0.9 3.2 0.1 0.4 0.6 0.6 0.7 0.7 3.6-0.2 6-2 7.9-4.4zm-7.3-7c-2.4-2.4-4.7-4.9-7.1-7.3-0.5-0.5-0.9-0.5-1.2 0.2-0.1 0.2-0.1 0.4-0.2 0.5-0.5 0.9-0.3 1.4 0.6 2.1 2.6 1.8 4.4 4.6 5.1 7.7 0.1 0.6 0.3 1.1 0.4 1.7l0.3 0.2 5.1-2.5c-1.2-0.9-2.2-1.7-3-2.6zm2.1 15.4c0.2 0.1 0.5 0.2 0.7 0.1 2.7-0.9 5.3-1.8 8-2.7 0.5-0.1 0.7-0.5 0.7-1v-0.1c-0.1-0.2-0.1-0.4 0-0.6 0.6-1.8-0.7-2.5-2-3.2-0.2-0.1-0.5-0.1-0.7 0.1-2.1 2.7-5.2 4.6-8.7 5.1 0.8 0.9 1.4 1.6 2 2.3zm13.3-32.9c0-0.2-0.2-0.4-0.3-0.6-1-0.7-2.1-1.4-3.1-2.1-0.3-0.1-0.5-0.1-0.8 0.1-1.7 1.5-3.1 3.2-4.3 5.1l7.3 2.9c0.6-1.7 1-3.5 1.2-5.4zm-2 7.5c0.1-0.1-0.2-0.6-0.4-0.7-2.1-0.9-4.3-1.7-6.5-2.5-0.3 0-0.6 0.1-0.9 0.3-0.5 1-0.9 2-1.3 3 0 0.3 0.1 0.6 0.4 0.8 2.3 0.6 4.3 2 5.7 4l0.4 0.1c1-1.7 1.8-3.4 2.6-5zm-30.7-7c2.6-1.6 5.3-3.1 7.9-4.7 0.5-0.3 0.9-0.7 1.2-1.2 0.6-1 1.2-2.1 1.7-3.2 0.1-0.2 0.2-0.40002 0.3-0.70002-4.5 0.1-12.5 7.1-12.7 11.1 0.5-0.4 1-0.9 1.6-1.3zm7.2 18.5c0 1.1 0.2 2.2 0.5 3.3 0.2 0.4 0.5 0.8 1 0.9 1.3 0.1 2.6 0 3.9 0 0.5 0 0.8-0.3 0.7-0.9-0.5-3.3-2.3-6.2-5-8.1-0.2-0.1-0.4-0.1-0.6-0.2-0.2 1.8-0.5 3.4-0.5 5zm12.3-9.4c-2.5-0.6-5-0.1-7.8 0.1 0.5 0.7 1 1.3 1.6 1.9 2.5 2.3 5 4.6 7.4 7 0.7 0.6 1.1 0.5 1.6-0.3-3.1-2.2-3.1-5.3-2.8-8.7zm13.6-3.8c0 0.3 0.1 0.5 0.4 0.7 1.4 0.8 2.8 1.5 4.3 2.4 0.7-1.6 1.5-3.2 2.2-4.8 0-0.1-0.1-0.4-0.3-0.5-1.8-0.9-3.6-1.7-5.4-2.6l-1.2 4.8zm-16.5-16c-0.9 0-1.9 0.1-2.7 0.5-1.1 0.6-2.5 2.9-2.8 4.2 0.4-0.1 0.7-0.20001 1-0.20001 2.4-0.5 4.9-0.89996 7.3-1.4 0.3 0 0.5-0.10002 0.7-0.20002 1-0.7 1.9-1.4 3.1-2.2-2.2-0.6-4.4-0.80001-6.6-0.70001zm6.3 26.9c0.4 0.4 1 0.4 1.4 0.1l0.2-0.2c0.6-0.7 1.2-1.3 1.8-2 0.4-0.4 0.5-1 0.2-1.4l-0.1-0.1c-1.1-1.5-2.7-2.6-4.5-3.1-0.6-0.2-0.9 0-0.9 0.6 0 0.5 0 0.9-0.1 1.3-0.2 1.9 0.6 3.6 2 4.8zm25.1-7.3c-0.1 1.9-0.9 3.7-2.4 5-0.7 0.7-0.8 1.2-0.1 1.9 0.3 0.4 0.6 0.8 0.8 1.2 0.9-1.2 1.7-2.2 2.4-3.4 1.1-1.9 2-3.9 1.3-6.2-0.4-1.3-1.3-2.3-2.5-2.9 0.2 1.5 0.4 2.9 0.5 4.4zm-44.4-4.4c-0.5 1.1 0 2.5 1.1 3 0.3 0.1 0.6 0.2 0.9 0.2 0.6 0.1 1.1 0.1 1.7 0.2s1.2-0.3 1.3-0.9v-0.4c-0.2-1.6-0.6-3.2-0.9-4.8-1.8 0-3.4 1.1-4.1 2.7zm12.4-10.1c-1.7 0.4-3.3 0.9-5 1.4-0.7 0.2-1.2 0.8-1.3 1.5-0.6 2.4-0.6 2.4 1.9 2.6 0.8 0.1 1.5-0.2 1.9-0.9 1-1.3 2.2-2.6 3.3-3.8 0.2-0.2 0.4-0.5 0.8-0.9-0.5-0.1-1 0-1.6 0.1zm18.4 3.7c0 0.3 0.2 0.5 0.4 0.6 1.6 0.9 3.2 1.8 4.9 2.6 0.4 0.1 0.7 0.1 1.1 0 0.1-0.6 0.4-1.6 0.1-1.9-2-1.7-4.1-3.2-6.2-4.7l-0.3 0.3v3.1zm7.2 25.3c-0.1 0.1-0.2 0.3-0.1 0.4 0.3 1.3 0.6 2.7 1 4 2.5-0.2 4.5-5 3.1-7.9-1.4 1.3-2.7 2.4-4 3.5zm0.2-12.7c-0.1 0.3-0.1 0.6 0.1 0.9 0.4 0.5 0.9 1 1.5 1.4 0.2 0.1 0.5 0.1 0.7 0 2-1.6 2.8-4.2 2.1-6.6-0.1-0.1-0.1-0.2-0.2-0.3-1.4 1.6-2.8 3.1-4.2 4.6zm3 7.7c0.1-0.1 0.1-0.4 0.1-0.5 0-0.2-0.1-0.3-0.2-0.4-1-1.9-1-1.9-2.8-0.9-2 1.1-2 1.1-1.5 3.4 0.1 0.6 0.3 1.1 0.5 2 1.5-1.3 2.7-2.4 3.9-3.6zm-0.1-13.4c0.7-0.9 0.5-1.2-0.7-1.3-2.2-0.2-2.2-0.2-3.1 1.8-0.4 1-0.9 2-1.4 2.9-0.5 1.1-0.5 1.1 0.7 1.7 1.5-1.7 3.1-3.4 4.5-5.1zm-20.7-12c1.3 0.5 2.6 1 3.9 1.4 0.4 0.1 0.8 0.1 1.2-0.1 0.7-0.40003 1.4-0.80002 2.1-1.3-1-0.5-1.8-0.80001-2.6-1.2-0.4-0.2-0.9-0.3-1.3-0.5-2-0.8-3.3-0.39995-4.9 1.3 0.7 0.1 1.2 0.19996 1.6 0.39996zm16.4 37.2c-1-0.1-2-0.1-3-0.3-0.8-0.1-1.7-0.4-2.5-0.6-1.4-0.5-2.9-0.1-3.9 1 1.5 2 7.6 2 9.4-0.1zm-22.9-42.9v0.30005c0.7 0.1 1.3 0.09995 2 0.19995 1.6 0.2 3.3 0.50002 4.9 0.90002 1.2 0.2 2.4-1e-5 3.4-0.70001-3.3-1.6-7-1.9-10.3-0.70001zm17.3 29.7 0.2 0.3c1-0.3 2.1-0.6 3.1-0.9 0.1 0 0.2-0.4 0.2-0.7 0.2-1.1 0.4-2.1 0.7-3.2 0.3-1 0.3-1-0.8-1.5l-3.4 6zm-5.6 2.4c-0.2 0-0.5 0.4-0.6 0.6-0.4 0.8-0.6 1.6-1 2.4-0.3 0.6-0.3 1 0.3 1.4 0.4 0.2 0.8 0.5 1.4 0.8l2.3-5.2c-0.8-0.1-1.6-0.1-2.4 0zm6.3 8.2c1.4 0.7 3.1 1 4.7 0.8 0.3-0.1 0.4-0.4 0.5-0.7-0.1-1-0.4-2-0.6-3.2l-4.6 3.1zm-22.1-2.9c-0.1-0.2-0.4-0.4-0.6-0.4-1.2 0-2.4 0.1-3.5 0.2 0.3 1.3 3.3 3.4 5.1 3.5-0.4-1.1-0.6-2.2-1-3.3zm12.5-2.4 1.3-3.1c-1.6 0-3.1-1.4-4.4 0.6l3.1 2.5zm14.8-25.2 0.3-0.1c-0.1-0.4-0.3-0.8-0.5-1.2-1-1.3-2.6-2.1-4.3-2l4.5 3.3zm-7.9 0.2c-0.1-1.1-0.2-2-0.3-3.1l-2.4 1.3 2.7 1.8zm7.8 15.2-0.8 2.9 0.3 0.2 2.4-1.2-1.9-1.9zm-28.9-11.1c-0.9 0.1-2 0-2.1 0.2-0.1 0.8-0.2 1.7-0.1 2.5l0.4 0.1 1.8-2.8zm15.6 16c0.2-0.5 0.2-1.1 0.2-1.7l-0.3-0.1-1.4 1.5 0.1 0.3c0.4 0 1.3 0.2 1.4 0zm3.7-26.3c-0.5-1.6-1.1-1.8-2.8-1.2l2.8 1.2zm-0.6 37.6 1.3-0.7-1.3-0.8v1.5z" fill="%%COLOR%%"/>
<path d="m56.078 86.794c0 0.3 0 0.6 0.1 0.9 0.2 0.3 0.5 0.5 0.8 0.6 0.2 0 0.5-0.3 0.6-0.6s0.1-0.6 0.1-0.9" fill="%%COLOR%%"/>
<path d="m76.678 54.294c-1.1-1.6-2.2-3.3-3.4-5-2.6-3.6-4-8-4.2-12.4 0-0.9-0.1-1.8-0.3-2.6-0.9-8.1-4.9-15.5-11.2-20.6-0.5-0.4-1-0.7-1.5-0.1-0.4 0.5-0.5 1.6 0 2 4.9 6 6.7 9.2 7.9 12.4 0 0.2 0.1 0.3 0.1 0.5 0.9 2.3 1.5 4.8 1.7 7.3 0.2 1.4 0.2 2.8 0.4 4.2 0.5 4 2.1 7.9 4.5 11.2 1.1 1.6 2.2 3.2 3.2 4.8 0.1 0.2 0.2 0.4 0.2 0.6-0.2 0.1-0.4 0.1-0.6 0.2h-7.1c-1.3 0-1.9 0.5-1.9 1.9v7.1c0.1 3.7-2.8 6.7-6.4 6.8h-0.3-4.3c-2.9 0-4.6 1.8-4.5 4.7 0 2.8 0.1 5.7 0.1 8.5v0.6h-24.2v-0.9-8.3c-0.1-5.6-1.4-11.1-3.6-16.2-1-2.5-2.2-4.9-3.7-7.1-0.4-0.8-1.1-1.5-1.8-0.9-0.4 0.6-0.6 1.3-0.4 2 1 2.4 2 4.7 3 7 2.4 5.3 3.6 11.1 3.5 16.9v6.8c0 0.7-0.2 0.8-0.8 0.8h-9.3c-1.2 0-1.8 0.6-1.7 1.6 0 0.8 0.6 1.4 1.4 1.4h0.5 47.1c0.3 0 0.6 0 0.9-0.1 0.7-0.2 1.1-0.9 1-1.6s-0.6-1.3-1.3-1.3c-0.7-0.1-1.5 0-2.2 0h-4.5c-0.5 0-0.6-0.1-0.6-0.6 0-2.9-0.1-5.7-0.1-8.6 0-1.1 0.4-1.6 1.5-1.6 1.9 0 3.8 0.1 5.7-0.2 4.8-0.6 8.4-4.7 8.4-9.5v-6.2h0.7 5.3c1.9 0.1 3.4-1.3 3.5-3.2 0.1-0.8-0.2-1.6-0.7-2.3z" fill="%%COLOR%%"/>
</svg>
