<svg xmlns="http://www.w3.org/2000/svg" width="16" height="16" fill="%%COLOR%%" xmlns:v="https://vecta.io/nano"><path d="M.308 5.364h2.467a.31.31 0 0 1 .308.308v2.159H5.55a.31.31 0 0 1 .308.308v2.776h2.467a.31.31 0 0 1 .308.308v2.159h2.159c.082 0 .16.032.218.09s.09.136.09.218a.31.31 0 0 1-.09.218c-.057.058-.136.09-.218.09H8.328a.31.31 0 0 1-.308-.308v-2.159H5.552a.31.31 0 0 1-.308-.308V8.448H2.776a.31.31 0 0 1-.308-.308V5.981H.308c-.082 0-.16-.032-.218-.09A.31.31 0 0 1 0 5.672c0-.082.032-.16.09-.218s.136-.09.218-.09zm12.495 1.254c-.599-.349-1.026-.74-1.59-1.078-.151-.091-.317-.156-.491-.19l-.678-.136a6.35 6.35 0 0 1-.624-1.378l-.369-.922c-.03-.076-.089-.136-.164-.168a.31.31 0 0 0-.235-.004c-.076.03-.135.09-.167.165a.31.31 0 0 0-.005.234l.369.922c.194.486.563 1.651 1.076 1.753l.225.045-1.098.753c-.199.143-.362.331-.474.55s-.171.46-.171.705v.993l-1.641.549a.31.31 0 0 0-.178.155c-.018.036-.029.076-.032.116a.31.31 0 0 0 .015.119c.013.038.033.074.06.105a.31.31 0 0 0 .211.106.3.3 0 0 0 .119-.015l1.851-.617c.061-.02.115-.06.153-.112s.058-.116.058-.18V7.855a.93.93 0 0 1 .101-.42c.066-.13.163-.243.281-.328l1.488-1.019c.009-.006.014-.016.022-.023l.898.602L9.79 7.898c-.043.026-.08.062-.106.106s-.041.092-.044.143.007.101.029.147.054.086.094.116l1.064.798-.559 1.955a.31.31 0 0 0 .212.381c.028.008.056.012.085.012a.31.31 0 0 0 .296-.224l.617-2.159a.31.31 0 0 0-.112-.331l-.867-.649 1.841-1.105"/><path d="M11.968 7.108c.386.389 2.08-.206 2.568-.396l.925-.361a.31.31 0 0 0 .175-.399.31.31 0 0 0-.163-.17c-.075-.033-.16-.035-.236-.005l-.925.361c-.399.085-1.353.52-1.403.495a.22.22 0 0 1-.114-.01c-.304.348-.069-.036-.094-.066-.173-.163-.295.155-.295.155L12.5 7m.044-3.443A1.08 1.08 0 0 0 11.78 5.4a1.08 1.08 0 0 0 1.843-.764 1.08 1.08 0 0 0-1.079-1.079zm0 1.542c-.091 0-.181-.027-.257-.078a.46.46 0 0 1-.196-.475c.018-.089.062-.172.127-.237s.147-.109.237-.127a.46.46 0 0 1 .267.026c.084.035.157.094.208.17a.46.46 0 0 1-.058.584c-.087.087-.204.135-.327.136z"/></svg>
