<svg xmlns="http://www.w3.org/2000/svg" width="16" height="16" fill="%%COLOR%%" fill-rule="evenodd" xmlns:v="https://vecta.io/nano"><path d="M3.941 1.775V4.57a5.91 5.91 0 0 0-1.134.975C2.384 6.022 2 6.643 2 7.326v5.823l.001.013.01.146c.014.24.035.595.135.896a1.21 1.21 0 0 0 .354.552 1.04 1.04 0 0 0 .592.238V15h3.753v-.006c.234-.022.433-.103.592-.238a1.21 1.21 0 0 0 .354-.552c.1-.3.121-.656.135-.896l.01-.146.001-.013V7.326c0-.683-.384-1.305-.807-1.781a5.91 5.91 0 0 0-1.134-.975V1.775h.202V1H3.61v.775h.331zm.631 0h.792v3.148l.153.092a5.22 5.22 0 0 1 1.139.949c.386.434.649.91.649 1.363v5.797l-.013.195c-.014.235-.029.475-.1.687-.043.128-.098.216-.164.271-.06.051-.152.095-.314.095H3.221c-.162 0-.254-.044-.314-.095s-.121-.143-.164-.271c-.071-.212-.086-.451-.1-.687l-.013-.195v-1.02h1.783 1.783V9.005H2.631V7.326c0-.453.263-.929.649-1.363a5.22 5.22 0 0 1 1.139-.949l.153-.092V1.775zm-1.884 7.86h2.879v1.839H2.688v-1.84zM13.874 11.5c0 1.45-1.139 2.625-2.544 2.625S8.785 12.95 8.785 11.5s1.139-2.625 2.544-2.625 2.544 1.175 2.544 2.625zm-1.538 1.621c-.29.192-.636.304-1.006.304-1.031 0-1.866-.862-1.866-1.925a1.96 1.96 0 0 1 .294-1.038l2.578 2.659zm.496-.479L10.223 9.95a1.82 1.82 0 0 1 1.108-.376c1.031 0 1.866.862 1.866 1.925 0 .428-.135.823-.364 1.143zM9.325 5.204c-.584.383-.737 1.212-.343 1.852s1.187.849 1.771.466l2.819-1.848c.584-.383.737-1.212.343-1.852s-1.187-.849-1.771-.466L9.325 5.204zm3.199-1.229l-1.033.677.666 1.082 1.033-.677c.273-.179.344-.566.16-.864s-.554-.396-.827-.218zM9.706 5.822l1.285-.842.666 1.082-1.285.842c-.272.179-.642.081-.826-.218s-.112-.686.16-.864z"/></svg>