<svg xmlns="http://www.w3.org/2000/svg" width="16" height="16" fill="none" xmlns:v="https://vecta.io/nano"><path fill-rule="evenodd" d="M9.723 1.775V4.57a5.9 5.9 0 0 0-1.131.975c-.422.476-.805 1.098-.805 1.781v5.823l.001.013.01.146c.014.24.035.595.135.896a1.21 1.21 0 0 0 .353.552 1.04 1.04 0 0 0 .591.238V15h.129 3.486.129v-.006a1.04 1.04 0 0 0 .591-.238c.182-.155.288-.358.353-.552.1-.3.121-.656.135-.896l.01-.146.001-.013V7.326c0-.683-.383-1.305-.806-1.781-.369-.416-.798-.756-1.131-.975V1.775h.202V1H9.393v.775h.331zm.63 0h.79v3.148l.153.092a5.21 5.21 0 0 1 1.137.949c.385.434.647.91.647 1.363v5.797l-.013.195c-.014.235-.029.475-.1.687-.043.128-.098.216-.163.271-.06.051-.152.095-.313.095H9.005c-.161 0-.253-.044-.313-.095-.065-.055-.12-.143-.163-.271-.071-.212-.085-.451-.1-.687l-.013-.195v-1.02h3.558V9.005H8.416V7.326c0-.453.262-.929.647-1.363a5.21 5.21 0 0 1 1.137-.949l.153-.092V1.775zM8.04 4.659a.24.24 0 0 1-.318.117l-.591-.273-.549 1.189 1.194.551a.24.24 0 0 1 .136.18c.013.052.01.108-.014.161l-2.193 4.752c-.258.56-.479.86-.71 1.05a1.65 1.65 0 0 1-.327.206l-.093.045-.185.095-.009.005-.01.004-1.346.627-.567 1.228a.24.24 0 0 1-.184.137c-.044.006-.091 0-.135-.02a.24.24 0 0 1-.117-.318l.567-1.228-.397-1.431-.003-.01-.002-.01-.048-.202-.026-.1c-.027-.11-.053-.233-.055-.382-.005-.298.08-.661.338-1.221l.88-1.907L4.59 5.057c.024-.052.064-.091.112-.115a.24.24 0 0 1 .227-.014l1.218.562.549-1.189-.498-.23a.24.24 0 0 1-.117-.318.24.24 0 0 1 .318-.117l1.524.703a.24.24 0 0 1 .117.318zm-.67 1.925L4.933 5.459 3.712 8.103l-.88 1.907c-.245.53-.298.817-.294 1.012a1.18 1.18 0 0 0 .041.275l.02.076.058.245.342 1.233 1.161-.54.224-.114.071-.034a1.18 1.18 0 0 0 .236-.147c.151-.124.334-.35.579-.88l.153-.331-1.001-.462a.24.24 0 0 1-.117-.318.24.24 0 0 1 .318-.117l1.001.462.34-.737-1.001-.462a.24.24 0 0 1-.117-.318.24.24 0 0 1 .318-.117l1.001.462.34-.737-1.001-.462a.24.24 0 0 1-.117-.318.24.24 0 0 1 .318-.117l1.001.462.665-1.44zm1.103 3.05h2.872v1.839H8.473V9.634z" fill="%%COLOR%%"/></svg>
