<svg xmlns="http://www.w3.org/2000/svg" width="24" height="24" fill="none" xmlns:v="https://vecta.io/nano"><g fill-rule="evenodd" fill="%%COLOR%%"><path d="M4.991 6.496c.074-1.637 1.424-2.926 3.063-2.926h5.637c1.639 0 2.988 1.289 3.063 2.926l.488 10.73c.079 1.746-1.315 3.205-3.063 3.205h-2.212c.285.59.889.996 1.588.996h3.066a2.53 2.53 0 0 0 2.529-2.529V5.869c0-.296.24-.536.537-.536s.537.24.537.536v13.029c0 1.989-1.613 3.602-3.602 3.602h-3.066c-1.301 0-2.397-.875-2.731-2.069H7.566c-1.748 0-3.142-1.459-3.063-3.205l.488-10.73zm3.063-1.853h5.637c1.065 0 1.942.838 1.991 1.902l.488 10.73c.052 1.135-.855 2.083-1.991 2.083H7.566c-1.136 0-2.042-.948-1.991-2.083l.488-10.73c.048-1.064.925-1.902 1.991-1.902z"/><path d="M6.02 10.625c-.068.219-.272.378-.513.378-.296 0-.536-.24-.536-.536 0-.406.316-.647.479-.751a2.93 2.93 0 0 1 .704-.304 5.93 5.93 0 0 1 1.604-.248c.494 0 .968.097 1.338.28.326.161.732.476.755.98.017.019.059.056.157.104.193.095.498.169.864.169s.671-.074.864-.169c.098-.048.141-.086.157-.104.022-.503.428-.819.755-.98.37-.182.844-.28 1.338-.28a5.93 5.93 0 0 1 1.604.248 2.93 2.93 0 0 1 .704.304c.163.104.479.345.479.751 0 .296-.24.536-.536.536-.241 0-.445-.159-.513-.378l-.006-.004c-.085-.054-.234-.12-.44-.183-.408-.124-.919-.201-1.292-.201-.366 0-.67.074-.864.169-.098.048-.141.086-.157.104-.022.503-.428.819-.755.979-.37.182-.844.28-1.338.28s-.968-.098-1.338-.28c-.326-.161-.732-.476-.755-.979-.017-.019-.059-.056-.157-.104-.193-.095-.498-.169-.864-.169-.373 0-.883.077-1.292.201a1.91 1.91 0 0 0-.44.183l-.006.004zm-.045.034zm9.794 0z"/></g><path d="M8.956 1.5c-.296 0-.537.24-.537.537s.24.536.537.536h3.066c.296 0 .536-.24.536-.536s-.24-.537-.536-.537H8.956z" fill="%%COLOR%%"/><path d="M6.887 13.916c0-.931.755-1.686 1.686-1.686s1.686.755 1.686 1.686-.755 1.686-1.686 1.686-1.686-.755-1.686-1.686zm1.686-.613c-.339 0-.613.275-.613.613s.275.613.613.613.613-.274.613-.613-.275-.613-.613-.613zm2.912 2.912c0-.931.755-1.686 1.686-1.686s1.686.755 1.686 1.686-.755 1.686-1.686 1.686-1.686-.755-1.686-1.686zm1.686-.613c-.339 0-.613.274-.613.613s.275.613.613.613.613-.274.613-.613-.275-.613-.613-.613z" fill="%%COLOR%%" fill-rule="evenodd"/></svg>
