<svg xmlns="http://www.w3.org/2000/svg" width="16" height="16" fill="%%COLOR%%" xmlns:v="https://vecta.io/nano"><path fill-rule="evenodd" d="M6.15 2.4l-.003-.004L5.859 2l-.306.383c0 0 0 0 .036.029l.255.204-.292-.233h0v.001l-.002.003-.008.01-.031.039-.113.148-.4.549-1.212 1.901C2.911 6.562 2 8.587 2 10.425h.748c0-1.632.824-3.512 1.686-5.021l1.174-1.841.224-.312.243.363 1.178 1.948c.428.777.853 1.64 1.17 2.492s.519 1.676.519 2.371h.748c0-.823-.233-1.739-.566-2.632s-.777-1.796-1.216-2.592L6.699 3.204l-.399-.59-.113-.16-.03-.042L6.15 2.4zm-.305.216l.302-.22c0 0 0 0-.302.22z"/><path d="M3.301 10.425c0-.206.167-.374.374-.374s.374.167.374.374c0 .992.804 1.795 1.795 1.795.206 0 .374.167.374.374s-.167.374-.374.374c-1.404 0-2.543-1.139-2.543-2.543zm2.543 3.097a3.1 3.1 0 0 1-3.097-3.097H2c0 2.123 1.721 3.845 3.844 3.845s3.844-1.721 3.844-3.844H8.94a3.1 3.1 0 0 1-3.097 3.097z"/><path d="M4.777 7.582c-.649 0-1.175.526-1.175 1.175s.526 1.175 1.175 1.175 1.175-.526 1.175-1.175-.526-1.175-1.175-1.175zM4.35 8.757c0-.236.191-.427.427-.427s.427.191.427.427-.191.427-.427.427-.427-.191-.427-.427zM14.7 7.052c0 1.295-1.05 2.345-2.345 2.345s-2.345-1.05-2.345-2.345c0-1.089.537-2.27 1.035-3.143l.697-1.093.231-.316.066-.086.018-.023.005-.006.001-.002h.001l.292.233.302-.22.001.001.001.002.005.007.018.025.065.092.229.339.693 1.145c.252.456.507.974.701 1.494s.332 1.056.332 1.551zm-3.943 0a1.6 1.6 0 0 0 1.598 1.598 1.6 1.6 0 0 0 1.598-1.598c0-.367-.107-.812-.285-1.291s-.414-.957-.655-1.394l-.663-1.096-.008-.011-.649 1.02c-.487.853-.937 1.889-.937 2.772z" fill-rule="evenodd"/><path d="M12.657 2.396c0 0 0 0-.302.22l-.292-.233.306-.383.288.396z"/></svg>
