<svg fill="none" viewBox="0 0 30 31" xmlns="http://www.w3.org/2000/svg">
<path d="m4 1h22c1.9 0 3.5 1.6 3.5 3.5v22c0 1.9-1.6 3.5-3.5 3.5h-22c-1.9 0-3.5-1.6-3.5-3.5v-22c0-1.9 1.6-3.5 3.5-3.5z" stroke="%%COLOR%%"/>
<path d="m7.5 16.5c1.3807 0 2.5-1.1193 2.5-2.5s-1.1193-2.5-2.5-2.5-2.5 1.1193-2.5 2.5 1.1193 2.5 2.5 2.5z" fill="%%COLOR%%"/>
<path d="m7.5 25.5c1.3807 0 2.5-1.1193 2.5-2.5s-1.1193-2.5-2.5-2.5-2.5 1.1193-2.5 2.5 1.1193 2.5 2.5 2.5z" fill="%%COLOR%%"/>
<path d="m16.5 16.5c1.3807 0 2.5-1.1193 2.5-2.5s-1.1193-2.5-2.5-2.5-2.5 1.1193-2.5 2.5 1.1193 2.5 2.5 2.5z" fill="%%COLOR%%"/>
<path d="m16.5 25.5c1.3807 0 2.5-1.1193 2.5-2.5s-1.1193-2.5-2.5-2.5-2.5 1.1193-2.5 2.5 1.1193 2.5 2.5 2.5z" fill="%%COLOR%%"/>
<path d="m6 5.5h14c0.6 0 1 0.4 1 1v1c0 0.6-0.4 1-1 1h-14c-0.6 0-1-0.4-1-1v-1c0-0.5 0.5-1 1-1z" fill="%%COLOR%%"/>
<path d="m16.7 6.5 1.1 0.9 1.2-0.9" stroke="#fff" stroke-linecap="round" stroke-width=".7"/>
</svg>
