<svg width="16" height="16" viewBox="0 0 16 16" fill="%%COLOR%%" xmlns="http://www.w3.org/2000/svg">
<path d="M3.64645 1.64645C3.84171 1.45118 4.15829 1.45118 4.35355 1.64645L10.3536 7.64645C10.5488 7.84171 10.5488 8.15829 10.3536 8.35355L4.35355 14.3536C4.15829 14.5488 3.84171 14.5488 3.64645 14.3536C3.45118 14.1583 3.45118 13.8417 3.64645 13.6464L9.29289 8L3.64645 2.35355C3.45118 2.15829 3.45118 1.84171 3.64645 1.64645Z"/>
<path d="M7.64645 1.64645C7.84171 1.45118 8.15829 1.45118 8.35355 1.64645L14.3536 7.64645C14.5488 7.84171 14.5488 8.15829 14.3536 8.35355L8.35355 14.3536C8.15829 14.5488 7.84171 14.5488 7.64645 14.3536C7.45118 14.1583 7.45118 13.8417 7.64645 13.6464L13.2929 8L7.64645 2.35355C7.45118 2.15829 7.45118 1.84171 7.64645 1.64645Z"/>
</svg>
