<svg xmlns="http://www.w3.org/2000/svg" width="16" height="16" fill="%%COLOR%%" xmlns:v="https://vecta.io/nano"><path d="M11.109 7.891a1.4 1.4 0 0 0-.181-1.701c-.163-.163-.344-.272-.543-.326a1.41 1.41 0 0 0 .163-.67c0-.362-.145-.706-.398-.959-.145-.145-.308-.253-.489-.308l1.593-1.593c.525-.525.525-1.394 0-1.937C11 .145 10.656 0 10.294 0s-.706.145-.959.398L5.805 3.91l-.869-.416c-.814-.398-1.792-.163-2.371.543C1.118 5.828.719 6.733.683 6.86.195 7.982.647 10.226.828 10.968l-.706.706c-.163.163-.163.416 0 .561.072.072.181.109.29.109s.199-.036.29-.109l.851-.851c.109-.109.145-.253.109-.38-.199-.778-.615-2.95-.235-3.801 0 0 0-.018.018-.018 0 0 .344-.851 1.774-2.624a1.17 1.17 0 0 1 1.394-.326l.597.29-1.357 1.357-.326-.036c-.217-.018-.416.127-.452.344-.018.217.127.416.344.452l.525.054h.054c.109 0 .199-.036.29-.109L9.896.977a.57.57 0 0 1 .796 0 .57.57 0 0 1 0 .796L6.801 5.665c-.163.163-.163.416 0 .561.163.163.416.163.561 0l1.394-1.412s.018 0 .018-.018a.57.57 0 0 1 .796 0 .56.56 0 0 1 .163.398.56.56 0 0 1-.163.398l-.597.597-.833.833c-.163.163-.163.416 0 .561.072.072.181.109.29.109s.199-.036.29-.109l.833-.833a.57.57 0 0 1 .796 0 .57.57 0 0 1 0 .796l-.833.833c-.163.163-.163.416 0 .561.072.072.181.109.29.109s.199-.036.29-.109l.163-.163a.57.57 0 0 1 .796 0 .56.56 0 0 1 .163.398.56.56 0 0 1-.163.398L8.376 12.29c-.018.018-.036.036-.036.054 0 0-.615.796-2.462 1.086-.091.018-.163.054-.217.109L3.869 15.33c-.163.163-.163.416 0 .561.072.072.181.109.29.109s.199-.036.29-.109L6.15 14.19c1.919-.326 2.679-1.158 2.824-1.357l2.679-2.679c.253-.253.398-.597.398-.959s-.145-.706-.398-.959c-.163-.163-.344-.271-.543-.344zm3.945-4.271l-1.086-1.756c-.072-.127-.199-.181-.344-.181a.41.41 0 0 0-.344.181L12.195 3.62c-.181.29-.398.742-.344 1.285.091.796.76 1.448 1.557 1.538.072 0 .127.018.199.018a1.82 1.82 0 0 0 1.195-.452c.38-.344.597-.814.597-1.321 0-.471-.181-.814-.344-1.068zm-.778 1.774c-.217.181-.489.272-.76.235a.98.98 0 0 1-.851-.851c-.036-.235.036-.471.217-.76l.742-1.195.742 1.213c.163.253.217.434.217.633.018.272-.091.525-.308.724z"/><path d="M10.186 1.774c.18 0 .326-.146.326-.326s-.146-.326-.326-.326-.326.146-.326.326.146.326.326.326z"/></svg>
