<svg viewBox="0 0 86 89" xmlns="http://www.w3.org/2000/svg">
<path d="m62.3 44.1c1.8-2.9 1.5-6.8-1-9.4-0.9-0.9-1.9-1.5-3-1.8 0.6-1.1 0.9-2.4 0.9-3.7 0-2-0.8-3.9-2.2-5.3-0.8-0.8-1.7-1.4-2.7-1.7l8.8-8.8c2.9-2.9 2.9-7.7 0-10.7-1.4-1.4-3.3-2.2-5.3-2.2s-3.9 0.8-5.3 2.2l-19.5 19.4-4.8-2.3c-4.5-2.2-9.9-0.9-13.1 3-8 9.9-10.2 14.9-10.4 15.6-2.7 6.2-0.2 18.6 0.8 22.7l-3.9 3.9c-0.9 0.9-0.9 2.3 0 3.1 0.4 0.4 1 0.6 1.6 0.6s1.1-0.2 1.6-0.6l4.7-4.7c0.6-0.6 0.8-1.4 0.6-2.1-1.1-4.3-3.4-16.3-1.3-21 0 0 0-0.1 0.1-0.1 0 0 1.9-4.7 9.8-14.5 1.9-2.3 5-3 7.7-1.8l3.3 1.6-7.5 7.5-1.8-0.2c-1.2-0.1-2.3 0.7-2.5 1.9-0.1 1.2 0.7 2.3 1.9 2.5l2.9 0.3h0.3c0.6 0 1.1-0.2 1.6-0.6l31-31c1.2-1.2 3.2-1.2 4.4 0s1.2 3.2 0 4.4l-21.5 21.5c-0.9 0.9-0.9 2.3 0 3.1 0.9 0.9 2.3 0.9 3.1 0l7.7-7.8s0.1 0 0.1-0.1c1.2-1.2 3.2-1.2 4.4 0 0.6 0.6 0.9 1.4 0.9 2.2s-0.3 1.6-0.9 2.2l-7.9 7.9c-0.9 0.9-0.9 2.3 0 3.1 0.4 0.4 1 0.6 1.6 0.6s1.1-0.2 1.6-0.6l4.6-4.6c1.2-1.2 3.2-1.2 4.4 0s1.2 3.2 0 4.4l-4.6 4.6c-0.9 0.9-0.9 2.3 0 3.1 0.4 0.4 1 0.6 1.6 0.6s1.1-0.2 1.6-0.6l0.9-0.9c1.2-1.2 3.2-1.2 4.4 0 0.6 0.6 0.9 1.4 0.9 2.2s-0.3 1.6-0.9 2.2l-14.8 15c-0.1 0.1-0.2 0.2-0.2 0.3 0 0-3.4 4.4-13.6 6-0.5 0.1-0.9 0.3-1.2 0.6l-9.9 9.9c-0.9 0.9-0.9 2.3 0 3.1 0.4 0.4 1 0.6 1.6 0.6s1.1-0.2 1.6-0.6l9.4-9.4c10.6-1.8 14.8-6.4 15.6-7.5l14.8-14.8c1.4-1.4 2.2-3.3 2.2-5.3s-0.8-3.9-2.2-5.3c-0.9-0.9-1.9-1.5-3-1.9z" fill="%%COLOR%%"/>
<path d="m84.1 20.5-6-9.7c-0.4-0.7-1.1-1-1.9-1s-1.5 0.40001-1.9 1l-6 9.7c-1 1.6-2.2 4.1-1.9 7.1 0.5 4.4 4.2 8 8.6 8.5 0.4 0 0.7 0.1 1.1 0.1 2.4 0 4.8-0.9 6.6-2.5 2.1-1.9 3.3-4.5 3.3-7.3 0-2.6-1-4.5-1.9-5.9zm-4.3 9.8c-1.2 1-2.7 1.5-4.2 1.3-2.4-0.3-4.4-2.2-4.7-4.7-0.2-1.3 0.2-2.6 1.2-4.2l4.1-6.6 4.1 6.7c0.9 1.4 1.2 2.4 1.2 3.5 0.1 1.5-0.5 2.9-1.7 4z" fill="%%COLOR%%"/>
<path d="m57.2 10.3c0.9941 0 1.8-0.80588 1.8-1.8s-0.8059-1.8-1.8-1.8-1.8 0.80589-1.8 1.8 0.8059 1.8 1.8 1.8z" fill="%%COLOR%%"/>
</svg>
