<svg xmlns="http://www.w3.org/2000/svg" width="16" height="16" fill="%%COLOR%%" xmlns:v="https://vecta.io/nano"><path fill-rule="evenodd" d="M3.31 1c.2-.03.39.11.42.33l.2 1.1h8.08c.01 0 .03 0 .04 0l.2-1.1c.03-.22.22-.37.42-.33s.34.24.31.46c-.32 2.25-.99 3.66-1.87 4.65-.83.94-1.82 1.46-2.74 1.96l-.12.06c-.98.52-1.89 1.03-2.64 1.95l-.08.09h5.1a5.6 5.6 0 0 0-.88-.89c-.16-.13-.2-.38-.08-.56s.35-.21.51-.08c1.31 1.05 2.37 2.68 2.79 5.9.03.22-.11.42-.31.45s-.39-.12-.42-.34l-.22-1.29H4.17l-.22 1.25c-.03.22-.22.37-.42.34s-.34-.23-.31-.45c.31-2.38.97-3.9 1.84-4.96.64-.78 1.37-1.3 2.11-1.72A8.1 8.1 0 0 1 4.9 6.14C4.01 5.15 3.33 3.73 3 1.46c-.03-.22.11-.42.31-.46zm8.53 2.21h-7.7c.19.6.41 1.09.66 1.51h6.25c.04 0 .09.01.13.03.25-.42.48-.93.67-1.54zM5.42 5.58l-.07-.08h5.28l-.05.06c-.74.83-1.62 1.3-2.57 1.81l-.02.01-.02-.01c-.94-.5-1.82-.97-2.55-1.79zm-1.06 7.01h7.48a7.9 7.9 0 0 0-.68-1.64H5.1c-.02 0-.04 0-.06-.01a8 8 0 0 0-.67 1.65z"/></svg>