<svg xmlns="http://www.w3.org/2000/svg" width="16" height="16" fill="%%COLOR%%" xmlns:v="https://vecta.io/nano"><path fill-rule="evenodd" d="M0 8a8 8 0 1 1 16 0 8 8 0 0 1-8 8c-2.209 0-4.21-.896-5.657-2.343S0 10.209 0 8zm7.5-6.982A7 7 0 0 0 1 8a6.97 6.97 0 0 0 1.709 4.584l1.419-1.419A4.98 4.98 0 0 1 3 8a5 5 0 0 1 4.5-4.975V1.018zm1 3.013l-.058-.007a4.02 4.02 0 0 0-.253-.02L8 4a4 4 0 0 0-4 4 3.98 3.98 0 0 0 .84 2.453c.205.264.443.502.707.707.677.527 1.528.84 2.453.84a4 4 0 0 0 3.969-3.5c.018-.143.028-.289.03-.437V8l-.001-.083c-.003-.141-.013-.28-.03-.417-.226-1.809-1.66-3.243-3.469-3.469zM12.975 7.5c-.235-2.362-2.113-4.241-4.475-4.475V1.018c3.467.245 6.238 3.015 6.482 6.482h-2.007zm0 1A5 5 0 0 1 8 13a4.98 4.98 0 0 1-3.164-1.129l-1.419 1.419A6.97 6.97 0 0 0 8 15a7 7 0 0 0 6.982-6.5h-2.007z"/></svg>
