<svg xmlns="http://www.w3.org/2000/svg" width="16" height="16" fill="%%COLOR%%" xmlns:v="https://vecta.io/nano"><path d="M4.16 2.23l.38.86a6.8 6.8 0 0 0 2.95 3.3 6.1 6.1 0 0 0 1.29.53c-.01-.23-.01-.51.03-.82.1-.75.45-1.68 1.42-2.33.38-.25.83-.36 1.27-.41a5.6 5.6 0 0 1 1.3.04 9 9 0 0 1 1.03.2l1.05.33c-.33.26-.67.5-.9.86a2 2 0 0 0-.31 1.29c.21 1.9.03 3.26-.39 4.23-.43.98-1.09 1.53-1.79 1.83a4.2 4.2 0 0 1-1.92.27 5 5 0 0 1-.72-.11L6.74 14 2 11.37l3.82-.85c-.38-.29-.85-.74-1.27-1.34-.89-1.28-1.53-3.25-.67-6.05l.28-.9zm3.59 8.58l-3.79.84 2.71 1.5 2.03-1.62.22.07.15.04c.13.03.33.06.55.08.46.04 1.04.01 1.6-.22.54-.23 1.07-.65 1.42-1.46.35-.82.54-2.04.34-3.87a2.7 2.7 0 0 1 .53-1.92l-.8-.15c-.37-.05-.77-.07-1.14-.04a2 2 0 0 0-.94.29c-.75.5-1.03 1.22-1.11 1.84a3.6 3.6 0 0 0-.02.79c.02.27.09.53.15.8l-.5-.06c-.2-.03-.4-.08-.6-.13a6.5 6.5 0 0 1-1.39-.58c-.92-.51-1.99-1.36-2.82-2.79-.42 2.1.12 3.58.8 4.55a5.5 5.5 0 0 0 1.17 1.22c.17.13.31.23.42.29.33.2.69.36 1.03.53zm3.71-5.3c.23 0 .41-.19.41-.41s-.19-.41-.41-.41-.41.19-.41.41.19.41.41.41z"/><path d="M7.56 1l.04.51a3.6 3.6 0 0 0 .83 2.17 2.7 2.7 0 0 0 .49.44l.15.1.04.02h.01 0s0 0-.08.17l-.08.17h0 0 0l-.07-.04-.18-.12a3.1 3.1 0 0 1-.56-.51 3.8 3.8 0 0 1-.86-1.88 3.1 3.1 0 0 0-.44 2.48c.1.36.24.65.37.84a2.6 2.6 0 0 0 .16.22l.05.06.01.02-.14.13-.14.13h0 0v-.01l-.02-.02-.06-.07c-.05-.06-.11-.15-.18-.26a3.4 3.4 0 0 1-.42-.95c-.22-.82-.18-1.95.79-3.23L7.56 1z"/></svg>