<svg xmlns="http://www.w3.org/2000/svg" width="16" height="16" fill="%%COLOR%%" xmlns:v="https://vecta.io/nano"><path d="M10.283 3.07a.48.48 0 0 1 .659.162l3.273 5.403c.575.417.994.791 1.28 1.138.3.365.476.728.502 1.104.027.381-.106.699-.275.957-.153.233-.356.448-.53.632l-.03.032a.48.48 0 0 1-.249.14l-4.282.915a.48.48 0 0 1-.261-.017 2.84 2.84 0 0 1-.785-.426c-.247-.193-.488-.463-.602-.816-.251-.78.199-1.582 1.27-2.345a.48.48 0 1 1 .557.782c-.983.7-.962 1.118-.913 1.268.036.111.126.234.281.355a1.81 1.81 0 0 0 .395.23l3.994-.853c.149-.159.266-.29.352-.421.098-.149.128-.26.121-.365-.008-.111-.063-.29-.286-.561s-.594-.609-1.177-1.025a.48.48 0 0 1-.132-.142L10.122 3.73a.48.48 0 0 1 .162-.659zM.861 4.137C1.467 3.439 2.382 3 3.589 3s2.024.419 2.536 1.017c.498.581.664 1.282.664 1.795a.48.48 0 1 1-.96 0c0-.331-.112-.796-.433-1.17-.307-.357-.846-.682-1.808-.682s-1.597.338-2.004.807C1.169 5.246.96 5.904.96 6.589c0 1.116.187 1.899.52 2.482.33.577.83 1.005 1.547 1.363a.48.48 0 0 1 .241.278c.173.518.455.974.895 1.269.433.29 1.082.467 2.073.312a.48.48 0 0 1 .148.949c-1.172.183-2.079-.009-2.756-.463-.606-.406-.978-.988-1.204-1.575-.756-.406-1.361-.927-1.778-1.656C.202 8.771 0 7.805 0 6.589c0-.869.264-1.766.861-2.453zm1.471 1.286a.48.48 0 0 1 .48-.48c1 0 1.704.193 2.091.735.185.26.262.554.298.831a6.77 6.77 0 0 1 .034.839v.018a.48.48 0 0 1-.48.48c-.057 0-.239.055-.425.221-.178.158-.261.329-.261.465s.083.308.261.465c.186.165.369.221.425.221a.48.48 0 1 1 0 .96c-.373 0-.773-.206-1.063-.463-.298-.264-.583-.676-.583-1.184s.286-.919.583-1.184a2.02 2.02 0 0 1 .58-.362l-.024-.355c-.025-.196-.07-.315-.127-.395-.098-.138-.367-.333-1.31-.333a.48.48 0 0 1-.48-.48z"/><path d="M12.256 11.834a.48.48 0 1 0-.233-.932l-1.372.343a.48.48 0 1 0 .233.931l1.372-.343z"/></svg>
