<svg xmlns="http://www.w3.org/2000/svg" width="16" height="16" fill="%%COLOR%%" xmlns:v="https://vecta.io/nano"><path d="M4.196 7.271c-.093 0-.168.075-.168.168s.075.168.168.168c.217 0 .393.176.393.393s-.176.393-.393.393c-.526 0-.953-.427-.953-.953s.427-.953.953-.953c.217 0 .393.176.393.393s-.176.393-.393.393zm.393 2.972c0-.093.075-.168.168-.168.217 0 .393-.176.393-.393s-.176-.393-.393-.393c-.526 0-.953.427-.953.953s.427.953.953.953c.217 0 .393-.176.393-.393s-.176-.393-.393-.393c-.093 0-.168-.075-.168-.168zm8.019-1.29c.093 0 .168.075.168.168s-.075.168-.168.168c-.217 0-.393.176-.393.393s.176.392.393.392c.527 0 .953-.427.953-.953s-.427-.953-.953-.953c-.217 0-.393.176-.393.393s.176.393.393.393zm-.954 2.412c0-.093-.075-.168-.168-.168-.217 0-.393-.176-.393-.393s.176-.393.393-.393c.526 0 .953.427.953.953s-.427.953-.953.953c-.217 0-.393-.176-.393-.393s.176-.393.393-.393c.093 0 .168-.075.168-.168z"/><path fill-rule="evenodd" d="M2.997 2.606c.239-.746 1.27-.82 1.624-.13L5.96 5.082a1.8 1.8 0 0 1 .142.375l.612 2.383a1.29 1.29 0 0 0 1.249.969h.317a1.29 1.29 0 0 0 1.249-.969l.612-2.383c.033-.13.081-.255.142-.375l1.338-2.606c.354-.69 1.385-.616 1.624.13l1.911 5.955a1.79 1.79 0 0 1-.081 1.302l-1.423 3.07c-.506 1.091-1.922 1.408-2.861.658l-1.254-1.002c-.104-.083-.209-.144-.315-.178-1.037-.341-1.901-.153-2.28.011-.042.018-.09.049-.153.099l-1.34 1.07c-.939.75-2.355.433-2.861-.658l-1.423-3.07a1.79 1.79 0 0 1-.081-1.302l1.911-5.955zm.776.198c-.011.008-.021.02-.028.042L1.833 8.801c-.077.241-.061.501.046.731l1.423 3.07a1.09 1.09 0 0 0 1.659.375l1.34-1.07a1.46 1.46 0 0 1 .332-.207c.536-.231 1.598-.443 2.836-.036.214.071.401.184.56.311l1.254 1.002a1.09 1.09 0 0 0 1.659-.375l1.423-3.07c.107-.231.123-.491.046-.731l-1.911-5.955c-.007-.022-.017-.034-.028-.042s-.032-.017-.055-.019a.11.11 0 0 0-.059.011c-.013.007-.026.017-.037.039l-1.338 2.606a1.01 1.01 0 0 0-.08.211l-.612 2.383c-.236.917-1.062 1.559-2.01 1.559h-.317c-.947 0-1.774-.641-2.01-1.559l-.612-2.383c-.019-.073-.046-.144-.08-.211L3.923 2.835c-.011-.021-.024-.032-.037-.039a.11.11 0 0 0-.059-.011c-.023.002-.042.01-.055.019z"/></svg>
