<svg xmlns="http://www.w3.org/2000/svg" width="16" height="16" fill="%%COLOR%%" xmlns:v="https://vecta.io/nano"><path d="M8.093 14.54c-.258 0-.448-.109-.604-.198s-.293-.168-.532-.17c-.225-.001-.281.038-.373.103-.108.076-.272.192-.571.194a1.47 1.47 0 0 1-.98-.401s-.174-.179 0-.442.507-.073.507-.073l-.003-.002c.003.002.208.195.462.195h.005c.075-.001.086-.009.163-.063.17-.12.372-.237.794-.234.43.002.695.155.888.267.138.079.192.106.257.101.076-.005.122-.034.225-.104.163-.11.387-.262.794-.264.367 0 .591.127.755.219.14.079.217.123.373.112.199-.014.283-.058.307-.074.084-.147.263-.219.43-.163a.36.36 0 0 1 .227.458c-.035.104-.205.449-.911.5-.375.027-.609-.105-.782-.203-.134-.076-.224-.127-.388-.127-.194.001-.272.054-.401.14s-.308.209-.584.227l-.06.001zm1.816-1.538c-.448 0-.683-.257-.872-.465-.214-.234-.416-.456-1.042-.471-.579-.015-.807.147-1.069.332-.294.208-.628.442-1.31.403-.77-.045-1.05-.385-1.254-.634-.145-.177-.218-.266-.481-.286-.676-.05-1.09.485-1.094.491-.119.162-.347.197-.51.078s-.197-.347-.078-.51c.026-.035.65-.867 1.735-.785.575.043.816.336.991.55.163.199.281.342.733.368.428.025.595-.093.848-.271.306-.215.686-.485 1.507-.465.937.023 1.314.436 1.563.709.173.189.22.229.343.227.174-.004.331-.119.571-.304.348-.269.824-.638 1.602-.58a2.43 2.43 0 0 1 1.897 1.176s.074.315-.177.438-.465-.091-.465-.091l.001.002a1.65 1.65 0 0 0-.327-.383c-.282-.247-.613-.386-.983-.413-.499-.038-.778.179-1.101.428-.271.209-.578.447-1.001.457-.01-.002-.02-.002-.029-.002zM6.277 7.348c-.14-.118-.343-.111-.475.008a.28.28 0 0 0-.034.035c-.129.153-.109.381.043.51a1.46 1.46 0 0 1 .139.134l-.001.001-.001-.001a1.57 1.57 0 0 0 .236.357 1.5 1.5 0 0 1 .145.874.36.36 0 0 0 .307.408.32.32 0 0 0 .049.004.36.36 0 0 0 .36-.311 2.01 2.01 0 0 0 .021-.263h.005c0-.044.036-1.055-.793-1.756zm1.944 2.08c-.014 0-.028-.001-.041-.003a.36.36 0 0 1-.318-.4c.127-1.116-.996-2.221-1.007-2.232a.36.36 0 1 1 .503-.52c.056.055 1.39 1.362 1.223 2.834-.023.185-.178.321-.36.321zm1.928-.256a.36.36 0 0 1-.357-.309c-.138-.957-.621-1.794-1.002-2.328-.421-.59-.816-.952-.821-.956a.361.361 0 1 1 .486-.535c.018.016.446.407.911 1.055.432.603.981 1.552 1.141 2.659.029.198-.109.381-.306.41a.4.4 0 0 1-.053.004zM4.985 7.376c-.088 0-.175-.031-.246-.095l-.463-.425c-.071-.065-.113-.155-.118-.252s.03-.19.095-.262l2.42-2.639c.065-.071.155-.113.252-.118s.19.03.262.095l.463.425c.071.065.113.155.118.252s-.03.19-.095.262l-2.42 2.639a.36.36 0 0 1-.268.118z"/><path d="M6.579 4.122a.31.31 0 0 1-.239-.111 3.82 3.82 0 0 0-1.292-1.002 4.06 4.06 0 0 0-1.285-.356 4.23 4.23 0 0 0-1.37.063c-.168.044-.338-.058-.382-.224s.058-.338.224-.382c.028-.008.699-.177 1.595-.079.527.058 1.027.197 1.484.412.572.271 1.079.663 1.503 1.165.111.132.095.329-.038.441a.31.31 0 0 1-.2.074zM4.424 6.431c-.089 0-.178-.038-.241-.111-.752-.896-1.756-.566-1.766-.562-.164.056-.342-.031-.397-.195s.031-.342.195-.397c.038-.013.376-.123.841-.089.438.033 1.074.204 1.607.842.111.133.094.329-.039.441a.31.31 0 0 1-.2.073z"/></svg>
