<svg viewBox="0 0 959 1002" xmlns="http://www.w3.org/2000/svg">
<path d="m487.4 1002c-20.6 0-35.8-8.7-48.2-15.8-12.6-7.2-23.4-13.4-42.5-13.6-18-0.1-22.4 3-29.8 8.2-8.6 6.1-21.7 15.3-45.6 15.5-44.1 0.4-74.8-28.6-78.2-32 0 0-13.9-14.3 0-35.3s40.5-5.8 40.5-5.8l-0.2-0.2c0.2 0.2 16.6 15.6 36.9 15.6h0.4c6-0.1 6.9-0.7 13-5 13.6-9.6 29.7-18.9 63.4-18.7 34.3 0.2 55.5 12.4 70.9 21.3 11 6.3 15.3 8.5 20.5 8.1 6.1-0.4 9.7-2.7 18-8.3 13-8.8 30.9-20.9 63.4-21.1h0.9c28.4 0 46.3 10.1 59.4 17.5 11.2 6.3 17.3 9.8 29.8 8.9 15.9-1.1 22.6-4.6 24.5-5.9 6.7-11.7 21-17.5 34.3-13 15.1 5.1 23.2 21.5 18.1 36.6-2.8 8.3-16.4 35.8-72.7 39.9-29.9 2.2-48.6-8.4-62.4-16.2-10.7-6.1-17.9-10.1-31-10.1h-0.5c-15 0.1-21.2 4.3-31.5 11.2-10.4 7-24.6 16.7-46.6 18.1-1.7 0.1-3.3 0.1-4.8 0.1zm194.8-61.6v0z" fill="%%COLOR%%"/>
<path d="m632.3 879.2c-35.8 0-54.5-20.5-69.6-37.1-17.1-18.7-33.2-36.4-83.2-37.6-46.2-1.2-64.4 11.7-85.3 26.5-23.5 16.6-50.1 35.3-104.6 32.2-61.5-3.6-83.8-30.7-100.1-50.6-11.6-14.1-17.4-21.2-38.4-22.8-54-4-87 38.7-87.3 39.2-9.5 12.9-27.7 15.7-40.7 6.2s-15.7-27.7-6.2-40.7c2.1-2.8 51.9-69.2 138.5-62.7 45.9 3.4 65.1 26.8 79.1 43.9 13 15.9 22.4 27.3 58.5 29.4 34.2 2 47.5-7.4 67.7-21.6 24.4-17.2 54.8-38.7 120.3-37.1 74.8 1.8 104.9 34.8 124.8 56.6 13.8 15.1 17.6 18.3 27.4 18.1 13.9-0.3 26.4-9.5 45.6-24.3 27.8-21.5 65.8-50.9 127.9-46.3 103.8 7.8 149.5 90.3 151.4 93.9 0 0 5.9 25.1-14.1 35-20 9.8-37.1-7.3-37.1-7.3l0.1 0.2c-0.1-0.2-8.6-15.2-26.1-30.6-22.5-19.7-48.9-30.8-78.5-33-39.8-3-62.1 14.3-87.9 34.2-21.6 16.7-46.1 35.7-79.9 36.5-0.8-0.2-1.6-0.2-2.3-0.2z" fill="%%COLOR%%"/>
<path d="m342.4 427.9c-11.2-9.4-27.4-8.9-37.9 0.6-1 0.9-1.9 1.8-2.7 2.8-10.3 12.2-8.7 30.4 3.4 40.7 3.9 3.3 7.6 6.9 11.1 10.7l-0.1 0.1-0.1-0.1c0.1 0.1 10.1 10.7 18.8 28.5 11 22.7 14.9 46.2 11.6 69.8-2.2 15.8 8.7 30.4 24.5 32.6 1.3 0.2 2.6 0.3 3.9 0.3 14.2 0.1 26.7-10.3 28.7-24.8 1-7.2 1.6-14.2 1.7-21h0.4c0-3.5 2.9-84.2-63.3-140.2z" fill="%%COLOR%%"/>
<path d="m497.6 593.9c-1.1 0-2.2-0.1-3.3-0.2-15.8-1.8-27.2-16.1-25.4-31.9 10.1-89.1-79.5-177.3-80.4-178.2-11.4-11.1-11.7-29.4-0.6-40.8s29.3-11.8 40.8-0.7c4.5 4.4 111 108.7 97.6 226.2-1.8 14.8-14.2 25.6-28.7 25.6z" fill="%%COLOR%%"/>
<path d="m651.5 573.5c-14.1 0-26.4-10.4-28.5-24.7-11-76.4-49.6-143.2-80-185.8-33.6-47.1-65.1-76-65.5-76.3-11.8-10.7-12.6-29-1.9-40.7 10.7-11.8 28.9-12.7 40.7-2 1.4 1.3 35.6 32.5 72.7 84.2 34.5 48.1 78.3 123.9 91.1 212.3 2.3 15.8-8.7 30.4-24.4 32.7-1.5 0.2-2.9 0.3-4.2 0.3z" fill="%%COLOR%%"/>
<path d="m439.9 197.1-193.2 210.8c-3.7 4.1-10.1 4.3-14.2 0.6l-37-33.9c-4.1-3.7-4.3-10.1-0.6-14.2l193.2-210.7c3.7-4.1 10.1-4.3 14.2-0.6l37 33.9c4.1 3.7 4.4 10.1 0.6 14.1z" fill="#fff"/>
<path d="m239.3 430.1c-7 0-14-2.5-19.6-7.6l-37-33.9c-5.7-5.2-9-12.4-9.4-20.1-0.3-7.8 2.4-15.2 7.6-20.9l193.2-210.7c5.2-5.7 12.4-9 20.1-9.4 7.8-0.3 15.2 2.4 20.9 7.6l37 33.9c5.7 5.2 9 12.4 9.4 20.1 0.3 7.8-2.4 15.2-7.6 20.9l-193.2 210.7c-5.7 6.2-13.5 9.4-21.4 9.4z" fill="%%COLOR%%"/>
<path d="m366.5 170.4c-7.1 0-14.2-3-19.1-8.9-29.2-34.6-63.9-61.5-103.1-80-31.5-14.8-66-24.4-102.6-28.4-62.6-6.8-108.9 4.9-109.4 5-13.4 3.5-27-4.6-30.5-17.9-3.5-13.4 4.6-27 17.9-30.5 2.2-0.6 55.8-14.1 127.3-6.3 42.1 4.6 82 15.7 118.5 32.9 45.7 21.6 86.1 52.9 120 93 8.9 10.5 7.6 26.3-3 35.2-4.6 3.9-10.3 5.9-16 5.9z" fill="%%COLOR%%"/>
<path d="m194.5 354.7c-7.1 0-14.2-3-19.2-8.9-60-71.5-140.2-45.2-141-44.9-13.1 4.5-27.3-2.5-31.7-15.6-4.5-13.1 2.5-27.3 15.6-31.7 3-1 30-9.8 67.1-7.1 35 2.6 85.7 16.3 128.3 67.2 8.9 10.6 7.5 26.3-3.1 35.2-4.6 3.9-10.4 5.8-16 5.8z" fill="%%COLOR%%"/>
</svg>
