<svg xmlns="http://www.w3.org/2000/svg" width="16" height="16" fill="%%COLOR%%" fill-rule="evenodd" xmlns:v="https://vecta.io/nano"><path d="M7.995 11.027a1.89 1.89 0 0 0 1.889-1.889 1.89 1.89 0 0 0-1.889-1.889 1.89 1.89 0 0 0-1.889 1.889 1.89 1.89 0 0 0 1.889 1.889zm0-.881a1.01 1.01 0 0 0 1.007-1.007 1.01 1.01 0 0 0-1.007-1.007 1.01 1.01 0 0 0-1.007 1.007 1.01 1.01 0 0 0 1.007 1.007zm.472-6.674a.472.472 0 1 0-.944 0v2.266l-.974.088a.47.47 0 0 0-.084-.142c-.223-.262-.339-.445-.409-.649-.072-.21-.108-.48-.108-.933a.472.472 0 1 0-.944 0c0 .491.037.883.159 1.239a2.51 2.51 0 0 0 .366.683l-.952.289c-.218-.286-.341-.497-.414-.711s-.109-.473-.102-.861a.472.472 0 1 0-.944-.018c-.008.451.03.826.152 1.185.095.278.234.526.411.779l-.827.443a2.28 2.28 0 0 1-.463-.534c-.151-.241-.219-.457-.219-.604a.472.472 0 1 0-.944 0c0 .392.162.784.363 1.105.128.206.285.402.456.573l-.498.394L.156 9.237a.44.44 0 0 0 .026.694l1.923 1.392c3.338 2.416 7.825 2.507 11.259.229l2.428-1.611a.44.44 0 0 0 .026-.716l-1.845-1.428-.091-.07a3.29 3.29 0 0 0 .517-.633c.2-.321.363-.712.363-1.105a.472.472 0 1 0-.944 0c0 .147-.068.363-.219.604a2.25 2.25 0 0 1-.524.583 9.86 9.86 0 0 0-.802-.44 3.17 3.17 0 0 0 .447-.83c.123-.359.161-.734.152-1.185a.472.472 0 1 0-.944.018c.007.388-.027.643-.102.861s-.202.435-.429.731a.5.5 0 0 0-.015.021 9.86 9.86 0 0 0-.944-.299c.166-.222.297-.447.388-.713.122-.356.159-.748.159-1.239a.472.472 0 1 0-.944 0c0 .453-.036.723-.108.933-.07.204-.185.387-.409.649a.47.47 0 0 0-.09.161c-.321-.049-.644-.083-.967-.101V3.472zM13.43 8.49l1.364 1.056-1.917 1.272c-.406.269-.828.502-1.262.699.972-.755 1.643-1.813 1.814-3.027zm-.839-.576a9.01 9.01 0 0 0-9.194-.082c.002.015.002.031.002.047 0 2.137 2 3.966 4.596 3.966 2.581 0 4.574-1.809 4.595-3.931zm-10.042.479c-.146.109-.29.223-.431.342l-.962.812 1.467 1.062c.631.457 1.306.822 2.009 1.096-1.137-.781-1.924-1.953-2.083-3.312z"/></svg>
