<svg enable-background="new 0 0 276.3 110.3" version="1.1" fill="#222222" viewBox="0 0 276.3 110.3"
    xmlns="http://www.w3.org/2000/svg">
    <path d="m83.1 34.3c-0.4 4.2-4.1 7.3-8.3 6.9s-7.3-4.1-6.9-8.3 4.1-7.3 8.3-6.9c4.1 0.4 7.2 4.1 6.9 8.3m1.5-10.1c-11.6-11.7-34.9-14.3-80.2 5.2-0.2 0.1-0.9 0.4-0.9 0.4-1.2 0.8-2 2.1-2 3.6-0.1 2.3 1.7 4.2 4 4.2h0.2c0.7-0.1 1.4-0.3 2-0.6 6.7-2.4 39.5-11.3 56.7 4.2 0.6 0.5 1.1 0.9 1.6 1.4s1 1 1.4 1.6c15.6 17.3 6.6 50.1 4.1 56.7-0.3 0.6-0.5 1.3-0.6 2-0.1 2.3 1.7 4.2 4 4.3h0.2c1.5 0 2.8-0.8 3.6-2 0.2-0.3 0.3-0.6 0.4-0.9 19.8-45.1 17.1-68.5 5.5-80.1"/>
    <path d="m107.1 12.3c-0.5 5.4-5.3 9.5-10.7 9s-9.5-5.3-9-10.7 5.3-9.5 10.7-9c5.5 0.5 9.5 5.3 9 10.7"/>
    <path d="m62 52.8c-0.3 2.9-2.8 5-5.6 4.7-2.9-0.3-5-2.8-4.7-5.6 0.3-2.9 2.8-5 5.6-4.7 2.9 0.2 5 2.7 4.7 5.6v0"/>
    <path d="m47.4 65.8c-0.2 2.1-2.1 3.7-4.2 3.5s-3.7-2.1-3.5-4.2 2.1-3.7 4.2-3.5 3.7 2.1 3.5 4.2"/>
    <path d="m242.4 24.8h-9.4c-1.4 0.1-2.4 1.3-2.3 2.7v31.2h-32.2v-31.3c0.1-1.4-0.9-2.6-2.3-2.7h-9.4c-1.4 0.1-2.4 1.3-2.3 2.7v79c0 1.4 1 2.5 2.3 2.7h9.4c1.4-0.1 2.4-1.3 2.3-2.7v-32.5h32.2v32.5c-0.1 1.4 1 2.6 2.3 2.7h9.3c1.4-0.1 2.4-1.3 2.3-2.7v-79c0.1-1.3-0.9-2.5-2.2-2.6z"/>
    <path d="m174.5 24.8h-41.2c-1.4 0.1-2.4 1.3-2.3 2.7v79c-0.1 1.4 1 2.6 2.3 2.7h9.3c1.4-0.1 2.4-1.3 2.3-2.7v-32.6h24.6c1.4-0.1 2.4-1.3 2.3-2.7v-9.8c0-1.4-1-2.5-2.3-2.7h-24.6v-18.8h29.6c1.4-0.1 2.4-1.3 2.3-2.7v-9.8c0.1-1.3-0.9-2.5-2.3-2.6z"/>
    <path d="m272.2 24.8h-9.4c-1.4 0.1-2.4 1.3-2.3 2.7v79c0 1.4 1 2.5 2.3 2.7h9.4c1.4-0.1 2.4-1.3 2.3-2.7v-79c0.1-1.4-0.9-2.6-2.3-2.7z"/>
</svg>
