<svg xmlns="http://www.w3.org/2000/svg" width="16" height="16" fill="%%COLOR%%" xmlns:v="https://vecta.io/nano"><path fill-rule="evenodd" d="M2.31 3.45c-.556.428-.87.993-.87 1.59v.008a1.62 1.62 0 0 1 .16-.008 1.6 1.6 0 1 1 0 3.2 1.6 1.6 0 0 1-.827-2.97.37.37 0 0 1-.079-.23c0-.876.463-1.644 1.161-2.182S3.501 2 4.533 2s1.981.322 2.679.858c.319.245.589.539.788.869.199-.33.469-.623.788-.869C9.486 2.322 10.434 2 11.467 2s1.981.322 2.679.858 1.161 1.305 1.161 2.182c0 .087-.03.167-.079.23a1.6 1.6 0 0 1-.827 2.97 1.6 1.6 0 1 1 0-3.2l.16.008c0-.604-.313-1.17-.87-1.598s-1.341-.704-2.224-.704-1.667.275-2.224.704-.869.992-.87 1.587v.003c0 .206-.167.373-.373.373s-.373-.167-.373-.373v-.003c-.001-.596-.314-1.16-.87-1.587s-1.342-.704-2.224-.704-1.667.275-2.224.704zm.144 3.19c0 .471-.382.853-.853.853S.747 7.111.747 6.64s.382-.853.853-.853.853.382.853.853zm12.8 0c0 .471-.382.853-.853.853s-.853-.382-.853-.853.382-.853.853-.853.853.382.853.853z"/><path d="M4.64 5.04c0-.206-.167-.373-.373-.373s-.373.167-.373.373c0 2.498 1.025 4.121 2.049 4.975.301.252.595.546.811.863s.34.639.34.952v1.743c0 .206.167.373.373.373s.373-.167.373-.373V11.83c0-.512-.202-.978-.47-1.372s-.617-.739-.95-1.016c-.852-.711-1.78-2.123-1.78-4.402zm7.093-.373c-.206 0-.373.167-.373.373 0 2.308-.899 3.722-1.752 4.422a5.22 5.22 0 0 0-.966 1.008c-.274.392-.482.857-.482 1.375v1.728c0 .206.167.373.373.373s.373-.167.373-.373v-1.728c0-.314.126-.632.347-.947a4.51 4.51 0 0 1 .828-.859c1.038-.852 2.025-2.485 2.025-4.999 0-.206-.167-.373-.373-.373z"/></svg>
