<svg xmlns="http://www.w3.org/2000/svg" width="16" height="16" fill="none" xmlns:v="https://vecta.io/nano"><path fill-rule="evenodd" d="M5.318 4.544c.489 0 .885-.396.885-.885s-.396-.885-.885-.885-.885.396-.885.885.396.885.885.885zm0 .774a1.66 1.66 0 0 0 1.659-1.659A1.66 1.66 0 0 0 5.318 2a1.66 1.66 0 0 0-1.659 1.659 1.66 1.66 0 0 0 1.659 1.659zm-.244.553c-.487 0-1.222.098-1.85.408C2.584 6.594 2 7.164 2 8.098v5.574c0 .214.173.387.387.387s.387-.173.387-.387V8.098c0-.538.312-.888.791-1.124.491-.242 1.099-.328 1.508-.328s1.017.086 1.508.328c.48.236.791.586.791 1.124v1.15c0 .214.173.387.387.387s.387-.173.387-.387v-1.15c0-.933-.584-1.503-1.223-1.819-.629-.31-1.364-.408-1.85-.408zm5.083 2.931c-.214 0-.387.173-.387.387v1.134H8.636c-.214 0-.387.173-.387.387v1.936c0 .214.173.387.387.387H9.77v1.134c0 .214.173.387.387.387h1.935c.214 0 .387-.173.387-.387v-1.134h1.134c.214 0 .387-.173.387-.387V10.71c0-.214-.173-.387-.387-.387h-1.134V9.189c0-.214-.173-.387-.387-.387h-1.935zm.387 1.908V9.576h1.161v1.134c0 .214.173.387.387.387h1.134v1.161h-1.134c-.214 0-.387.173-.387.387v1.134h-1.161v-1.134c0-.214-.173-.387-.387-.387H9.023v-1.161h1.134c.214 0 .387-.173.387-.387zm-.995-6.719a.61.61 0 0 0 .608-.608.61.61 0 0 0-.608-.608.61.61 0 0 0-.608.608.61.61 0 0 0 .608.608zm0 .774c.764 0 1.382-.619 1.382-1.382S10.312 2 9.549 2s-1.382.619-1.382 1.382.619 1.382 1.382 1.382zm.113.239c-.418 0-1.051.077-1.595.323-.333.151-.663.382-.872.718l.616.493c.092-.211.288-.376.575-.505.413-.187.929-.254 1.276-.254s.863.067 1.276.254.634.441.634.802v.902c0 .214.173.387.387.387s.387-.173.387-.387v-.902c0-.793-.542-1.26-1.089-1.507s-1.177-.323-1.595-.323z" fill="%%COLOR%%"/></svg>
