<svg xmlns="http://www.w3.org/2000/svg" width="16" height="16" fill="%%COLOR%%" fill-rule="evenodd" xmlns:v="https://vecta.io/nano"><path d="M10.127 8.695a2.25 2.25 0 0 1-1.109 1.286l.402.805a.84.84 0 0 1 .823.841.841.841 0 0 1-1.682 0c0-.183.058-.352.157-.49l-.463-.926a2.26 2.26 0 0 1-.255.014 2.24 2.24 0 0 1-.656-.098l-.425.734a.84.84 0 0 1-1.307 1.042.84.84 0 0 1 .628-1.435l.405-.698c-.354-.269-.626-.642-.771-1.072l-.423.087a.84.84 0 0 1-.055.141.841.841 0 1 1-1.505-.752.84.84 0 0 1 1.402-.159l.466-.096a2.23 2.23 0 0 1 .403-1.221l-.435-.435a.84.84 0 1 1 .592-.804.84.84 0 0 1-.037.249l.435.435a2.23 2.23 0 0 1 .583-.292l-.14-.983c-.038-.015-.076-.033-.113-.055a.841.841 0 0 1 .844-1.455.84.84 0 0 1 .05 1.424l.137.959a2.23 2.23 0 0 1 1.208.402l.996-.996a.84.84 0 0 1 .804-1.09.841.841 0 1 1 0 1.682.84.84 0 0 1-.249-.037l-.996.996a2.23 2.23 0 0 1 .403 1.22l.572.114a.84.84 0 0 1 .068-.065.841.841 0 1 1 1.093 1.279.84.84 0 0 1-1.186-.093c-.092-.108-.152-.232-.181-.362l-.481-.096zm-.669-.714A1.46 1.46 0 0 1 8 9.439a1.46 1.46 0 0 1-1.458-1.458A1.46 1.46 0 0 1 8 6.523a1.46 1.46 0 0 1 1.458 1.458zM8.212.922a.39.39 0 0 0-.423 0c-.91.583-1.641 1.002-2.435 1.279-.789.276-1.659.418-2.845.418-.193 0-.357.14-.388.33-.212 1.324-.21 3.878.547 6.263s2.31 4.694 5.25 5.321a.41.41 0 0 0 .164 0c2.94-.628 4.491-2.932 5.25-5.321s.759-4.939.547-6.263c-.03-.19-.195-.33-.388-.33-1.187 0-2.056-.142-2.845-.418-.794-.277-1.525-.696-2.435-1.279zM3.416 8.974A14.47 14.47 0 0 1 2.852 3.4c1.089-.026 1.954-.176 2.761-.458.816-.285 1.555-.699 2.387-1.224.833.525 1.572.939 2.388 1.224.806.282 1.671.432 2.761.458a14.47 14.47 0 0 1-.565 5.575c-.708 2.228-2.084 4.204-4.583 4.773-2.499-.57-3.876-2.545-4.584-4.773z"/></svg>
