<svg xmlns="http://www.w3.org/2000/svg" width="16" height="16" fill="%%COLOR%%" fill-rule="evenodd" xmlns:v="https://vecta.io/nano"><path d="M7.5 6.125c-.759 0-1.375.616-1.375 1.375S6.741 8.875 7.5 8.875 8.875 8.259 8.875 7.5 8.259 6.125 7.5 6.125zM6.875 7.5c0-.345.28-.625.625-.625s.625.28.625.625-.28.625-.625.625-.625-.28-.625-.625zm1.497-3.547a1.5 1.5 0 1 0-.744 0A.36.36 0 0 0 7.625 4v.5a3.69 3.69 0 0 0-1.821.774L4.92 4.39A.97.97 0 0 0 5 4a1 1 0 1 0-1 1c.139 0 .271-.028.391-.079l.884.884c-.41.509-.681 1.135-.754 1.821H4a.37.37 0 0 0-.047.003 1.5 1.5 0 1 0 0 .743.36.36 0 0 0 .047.003h.52a3.48 3.48 0 0 0 .544 1.531l-.673.673A1 1 0 1 0 5 11.5a.99.99 0 0 0-.079-.39l.619-.62a3.49 3.49 0 0 0 2.085.99l-.001.52c0 .016.001.031.003.046a1.5 1.5 0 1 0 .745.001c.002-.015.003-.031.003-.046v-.5c.686-.093 1.314-.365 1.824-.777.011.015.023.029.036.042l.407.407a1.25 1.25 0 1 0 2.358.578 1.25 1.25 0 0 0-1.25-1.25c-.209 0-.405.051-.578.142l-.407-.407c-.013-.013-.027-.025-.042-.036.412-.51.684-1.137.757-1.824h.011.009.5c.016 0 .031-.001.046-.003a1.5 1.5 0 1 0 .001-.745c-.015-.002-.031-.003-.046-.003h-.5c-.093-.686-.365-1.314-.777-1.824.015-.011.029-.023.042-.036l.407-.407a1.25 1.25 0 1 0 .578-2.359 1.25 1.25 0 0 0-1.25 1.25c0 .209.051.405.142.578l-.407.407c-.013.013-.025.027-.036.042-.51-.412-1.137-.684-1.824-.757L8.375 4a.37.37 0 0 0-.003-.047zM8.75 2.5a.75.75 0 1 1-1.5 0 .75.75 0 1 1 1.5 0zm2 5.5a2.75 2.75 0 1 1-5.5 0 2.75 2.75 0 1 1 5.5 0zM4 4.25a.25.25 0 1 0 0-.5.25.25 0 1 0 0 .5zm.25 7.25a.25.25 0 1 0-.5 0 .25.25 0 1 0 .5 0zm7.5-6.75a.5.5 0 1 1 0-1 .5.5 0 1 1 0 1zm-.5 7a.5.5 0 1 1 1 0 .5.5 0 1 1-1 0zM8 14.25a.75.75 0 1 0 0-1.5.75.75 0 1 0 0 1.5zM3.25 8a.75.75 0 1 1-1.5 0 .75.75 0 1 1 1.5 0zm10.25.75a.75.75 0 1 0 0-1.5.75.75 0 1 0 0 1.5z"/></svg>
