<svg viewBox="0 0 30 31" xmlns="http://www.w3.org/2000/svg">
<path d="m20.283 21.78v6.516c-0.0023 0.1054-0.0452 0.2058-0.1197 0.2803s-0.1749 0.1174-0.2803 0.1197h-17.369c-0.10537-0.0023-0.20578-0.0452-0.2803-0.1197-0.07453-0.0745-0.11741-0.1749-0.1197-0.2803v-25.782c0.00229-0.10536 0.04517-0.20578 0.1197-0.2803 0.07452-0.07452 0.17493-0.1174 0.2803-0.11969h17.16v-1.86h-17.16c-0.60021 7.94e-4 -1.1756 0.23958-1.6 0.66399-0.42441 0.42441-0.66319 0.9998-0.66399 1.6v25.782c7.94e-4 0.6002 0.23958 1.1756 0.66399 1.6 0.42441 0.4244 0.9998 0.6632 1.6 0.664h17.365c0.6002-8e-4 1.1756-0.2396 1.6-0.664s0.6632-0.9998 0.664-1.6v-5.835l-1.86-0.685z" fill="%%COLOR%%" stroke="%%COLOR%%" stroke-width=".5"/>
<path d="m28.978 12.953h-0.086c-0.847 0-0.847 0-0.96 0.892l-7.118-3.14c0.809-1.154 1.583-2.255 2.354-3.358 0.336-0.48 0.311-0.63599-0.152-0.96199-0.7053-0.49666-1.412-0.991-2.12-1.483-0.5-0.35-0.636-0.327-0.988 0.174-1.054 1.5-2.113 3-3.153 4.511-0.1908 0.30343-0.4907 0.52209-0.838 0.61099-0.983 0.263-1.952 0.581-2.935 0.846-0.8724 0.23-1.6296 0.7732-2.127 1.526-1.384 2-2.786 3.983-4.179 5.975-0.10178 0.1388-0.19207 0.2856-0.27 0.439-0.11404 0.2076-0.17399 0.4406-0.17432 0.6774-3.3e-4 0.2369 0.05898 0.47 0.17245 0.6779 0.11347 0.208 0.27745 0.384 0.47683 0.5118 0.19939 0.1279 0.42775 0.2035 0.66404 0.2199 0.36622 0.0237 0.73351 0.0261 1.1 7e-3 -0.12633 0.2295-0.23272 0.4693-0.318 0.717-0.22 0.833-0.4 1.677-0.617 2.51-0.07296 0.184-0.08166 0.3871-0.02466 0.5766 0.05699 0.1895 0.17633 0.3542 0.33866 0.4674 0.15702 0.1069 0.34384 0.1614 0.5337 0.1556 0.18986-0.0057 0.37304-0.0714 0.52331-0.1876 0.721-0.443 1.459-0.859 2.171-1.317 0.2543-0.1755 0.4808-0.3882 0.672-0.631 0.25-0.3 1.267-1.659 1.494-1.979h5.616c3.267 2.872 6.221 2.226 8.945 0.52v2.117c0 0.576 0.192 0.723 0.762 0.583l0.238-0.06-1e-3 -11.597zm-8.446-7.244 1.819 1.278-0.931 1.331-1.822-1.274 0.934-1.335zm-1.437 2.049 1.821 1.276c-0.47 0.672-0.925 1.324-1.382 1.976-1.3 1.848-2.6 3.692-3.882 5.548-0.0687 0.1192-0.1704 0.2161-0.2927 0.2791-0.1224 0.0629-0.2603 0.0893-0.3973 0.0759-0.73-0.024-1.462-7e-3 -2.282-7e-3l6.415-9.148zm-11.1 12.533c-0.337 0.016-0.683-0.037-0.781-0.374-0.05905-0.2617-0.01271-0.5362 0.129-0.764 1.424-2.077 2.877-4.135 4.318-6.2 0.3473-0.5097 0.8649-0.8788 1.46-1.041 0.793-0.226 1.584-0.46 2.48-0.721-0.151 0.229-0.233 0.359-0.321 0.484-1.2773 1.8207-2.5553 3.641-3.834 5.461-0.5 0.715-0.979 1.451-1.521 2.135-0.22649 0.3021-0.51716 0.5501-0.85107 0.7263-0.3339 0.1762-0.70274 0.2762-1.0799 0.2927l1e-3 1e-3zm0.538 4.338 0.545-2.232 1.463 1.022-2.008 1.21zm2.706-1.789-1.821-1.276 1.465-2.13 0.13-0.01c0.028 0.3977 0.1727 0.7782 0.4161 1.094 0.2433 0.3157 0.5745 0.5526 0.9519 0.681l-1.142 1.641zm16.726-2.458c-0.0137 0.2085-0.1055 0.4041-0.257 0.548-1.0787 1.0079-2.5086 1.5543-3.9846 1.5225-1.476-0.0317-2.8811-0.6391-3.9154-1.6925-0.2029-0.1822-0.4644-0.2854-0.737-0.291-1.928-0.023-3.857-0.013-5.786-0.011-0.1879 0.0161-0.3771-0.0067-0.5558-0.0668-0.1788-0.0602-0.3432-0.1565-0.4832-0.2829-0.1399-0.1265-0.2523-0.2803-0.3303-0.4521-0.0779-0.1717-0.1197-0.3576-0.1227-0.5462 0.0016-0.1851 0.0411-0.368 0.1161-0.5373 0.075-0.1692 0.1838-0.3214 0.3199-0.4469 0.1361-0.1256 0.2964-0.2219 0.4712-0.2831 0.1747-0.0612 0.3601-0.086 0.5448-0.0727 1.815-7e-3 3.63 0.01 5.445-9e-3 1.3135-0.0069 2.5757-0.5107 3.533-1.41 0.058-0.053 0.154-0.105 0.16-0.165 0.021-0.208 0.01-0.42 0.011-0.63-0.2 0-0.481-0.083-0.583 0.018-0.5537 0.5148-1.2141 0.9012-1.9342 1.1318-0.72 0.2306-1.482 0.2996-2.2318 0.2022-0.355-0.022-0.713 0-1.176 0l3.836-5.47 2.8 1.232c1.505 0.663 3.007 1.332 4.517 1.984 0.1171 0.0352 0.2179 0.1108 0.2846 0.2133 0.0666 0.1026 0.0948 0.2254 0.0794 0.3467-0.017 1.719-2e-3 3.443-0.022 5.167l1e-3 1e-3z" fill="%%COLOR%%" stroke="%%COLOR%%" stroke-width=".5"/>
</svg>
