<svg xmlns="http://www.w3.org/2000/svg" width="16" height="16" fill="none" xmlns:v="https://vecta.io/nano"><path fill-rule="evenodd" d="M4.524 2C3.459 2 2.57 2.755 1.97 3.809 1.363 4.875 1 6.321 1 7.898s.363 3.023.97 4.088c.6 1.054 1.489 1.809 2.554 1.809.953 0 1.748-.59 2.063-1.46.294-.814.158-1.825-.548-2.806.219-.395.32-.822.348-1.234.457.036.738.153.908.304.134.119.233.289.283.541l-1.059 5.296c-.042.209.094.412.303.454s.412-.094.454-.303L8 10.967l.724 3.62c.042.209.245.344.454.303s.344-.245.303-.454L8.422 9.14c.05-.252.149-.422.283-.541.171-.152.451-.268.908-.304.028.412.129.839.348 1.234-.706.98-.842 1.992-.548 2.806.315.87 1.109 1.46 2.063 1.46 1.066 0 1.954-.755 2.554-1.809.607-1.066.97-2.512.97-4.088s-.363-3.023-.97-4.088C13.43 2.755 12.541 2 11.476 2c-.638 0-1.466.232-1.877.995-.393.729-.32 1.791.4 3.251-.151.33-.295.78-.359 1.274-.597.035-1.091.185-1.448.503-.071.063-.135.131-.191.204-.057-.072-.12-.14-.192-.204-.357-.317-.85-.468-1.448-.503-.064-.494-.208-.944-.359-1.274.72-1.46.793-2.522.4-3.251C5.99 2.232 5.162 2 4.524 2zM1.772 7.898c0-1.468.34-2.777.869-3.707.536-.94 1.216-1.419 1.884-1.419.499 0 .978.182 1.198.59.223.413.272 1.224-.495 2.706l-.094.182.097.18c.15.277.33.777.38 1.332s-.034 1.117-.355 1.568l-.17.239.185.228c.717.881.797 1.706.59 2.278s-.721.951-1.337.951c-.668 0-1.348-.479-1.884-1.419-.529-.929-.869-2.239-.869-3.707zm12.457 0c0-1.468-.34-2.777-.869-3.707-.536-.94-1.216-1.419-1.884-1.419-.499 0-.978.182-1.198.59-.223.413-.272 1.224.495 2.706l.094.182-.098.18c-.15.277-.33.777-.38 1.332s.034 1.117.355 1.568l.17.239-.185.228c-.717.881-.797 1.706-.59 2.278s.721.951 1.337.951c.668 0 1.348-.479 1.884-1.419.529-.929.869-2.239.869-3.707z" fill="%%COLOR%%"/></svg>
