<svg xmlns="http://www.w3.org/2000/svg" xmlns:xlink="http://www.w3.org/1999/xlink" width="16" height="16" fill="none" xmlns:v="https://vecta.io/nano"><g fill-rule="evenodd" fill="%%COLOR%%"><path d="M8 .998l6.856 6.232a.42.42 0 0 1-.565.622L8 2.133 1.708 7.852a.42.42 0 0 1-.565-.622L8 .998z"/><path d="M12.965 2.883h-.957v1.761l.957.869v-2.63zm.84 4.527l-2.637-2.395V2.043h2.637V7.41z"/></g><circle cx="8" cy="8.147" r="1.375" stroke="%%COLOR%%" stroke-width=".85"/><g fill="%%COLOR%%"><path fill-rule="evenodd" d="M13.805 8.406h-.84v4.738a1.16 1.16 0 0 1-1.16 1.16H4.199a1.16 1.16 0 0 1-1.16-1.16V8.406h-.84v2.738l.051 2c.064.65.208 1.088.535 1.414s.764.471 1.414.535c.516.051 1.166.051 2 .051h3.605l2-.051c.65-.064 1.088-.208 1.414-.535s.471-.764.535-1.414c.051-.516.051-1.166.051-2V8.406z"/><path d="M2.199 8.147a.42.42 0 0 1 .418-.418.42.42 0 0 1 .418.418v.418h-.836v-.418zm10.77 0a.42.42 0 0 1 .418-.418.42.42 0 0 1 .418.418v.418h-.836v-.418z"/></g><g stroke="%%COLOR%%" stroke-width=".84"><use xlink:href="#B"/><use xlink:href="#B"/></g><defs ><path id="B" d="M7.963 11.026c2.202.049 3.273.971 3.212 2.095v1.482m-3.138-3.576c-2.218.053-3.264.971-3.204 2.095v1.482"/></defs></svg>
