<svg xmlns="http://www.w3.org/2000/svg" width="16" height="16" fill="%%COLOR%%" xmlns:v="https://vecta.io/nano"><path d="M14.193 6.527l.729 1.992c.257.577-.167 1.23-.897 1.23h-.85v1.775c0 .942-.759 1.725-1.725 1.725H9.7l-.001 1.313c0 .242-.196.438-.437.438-.217 0-.413-.196-.413-.437l.025-1.751c0-.242.196-.436.438-.436h2.187a.88.88 0 0 0 .875-.875V9.313c0-.242.196-.437.438-.437h1.288l-.445-1.201-.31-.857-.244-.687c-.318-.903-.643-1.826-.914-2.214-.902-1.278-2.373-2.041-3.935-2.041H6.443c-2.42 0-4.476 1.887-4.565 4.203-.051 1.303.482 2.551 1.456 3.426l.241.26v4.799c0 .242-.171.438-.413.438s-.437-.196-.437-.437l.025-4.405C1.631 9.151.941 7.683 1.004 6.045 1.113 3.191 3.613 1 6.47 1h1.805a5.69 5.69 0 0 1 4.648 2.412c.414.588.857 1.896 1.271 3.115z"/><path fill-rule="evenodd" d="M6.567 3.1c-.246 0-.445.199-.445.445V4.85H4.817c-.246 0-.445.199-.445.445v2.227c0 .246.199.445.445.445h1.305v1.305c0 .246.199.445.445.445h2.227c.246 0 .445-.199.445-.445V7.968h1.305c.246 0 .445-.199.445-.445V5.295c0-.246-.199-.445-.445-.445H9.239V3.545c0-.246-.199-.445-.445-.445H6.567zm.445 2.195V3.991h1.336v1.305c0 .246.199.445.445.445h1.305v1.336H8.794c-.246 0-.445.199-.445.445v1.305H7.012V7.523c0-.246-.199-.445-.445-.445H5.262V5.741h1.305c.246 0 .445-.199.445-.445z"/></svg>
