<svg viewBox="0 0 354 365" xmlns="http://www.w3.org/2000/svg">
<path d="m295.7 230.5c-2.5 0-5-0.9-6.9-2.8-0.3-0.3-16.1-15-39.7-22.8-30.8-10.1-60.4-4.2-87.9 17.7-4.3 3.4-10.6 2.7-14.1-1.6-3.4-4.3-2.7-10.6 1.6-14.1 41.6-33.1 81.3-29.6 107.4-20.8 27.8 9.3 45.7 26.3 46.5 27 4 3.8 4.1 10.1 0.3 14.1-2 2.2-4.6 3.3-7.2 3.3z" fill="%%COLOR%%"/>
<path d="m133.4 249c-3.1 0-6.2-1.4-8.1-4.1-3.2-4.5-2.2-10.7 2.2-13.9 0.4-0.3 20.8-15.8 32.4-48.7 15.8-44.8 32.4-84.4 37.2-95.5 2.2-5.1 8-7.4 13.1-5.3 5.1 2.2 7.4 8 5.3 13.1-4.7 10.9-21.1 50.1-36.7 94.3-13.8 39.3-38.5 57.5-39.5 58.2-1.8 1.3-3.8 1.9-5.9 1.9z" fill="%%COLOR%%"/>
<path d="m284 244.5c-1.8 0-3.7-0.5-5.3-1.6-4.7-3-6.1-9.1-3.1-13.8 1-1.6 25.4-39.4 67.2-43.8 5.5-0.6 10.4 3.4 11 8.9s-3.4 10.4-8.9 11c-32.3 3.4-52.2 34.3-52.4 34.6-1.9 3.1-5.2 4.7-8.5 4.7z" fill="%%COLOR%%"/>
<path d="m258.2 114.6c-5.6 0-11.4-1.6-15.6-4.5-2.8-1.9-14-11.9-14.3-22.1-0.1-4.3 1.7-8.1 5.1-10.8 2.6-2 5.7-2.9 9-2.4 7.5 1 13.5 8.4 15.8 11.6 1.9 2.6 1.3 6.2-1.3 8-2.6 1.9-6.2 1.3-8-1.3-3.8-5.3-7.4-7.1-8.2-6.9l-0.1 0.1c-0.6 0.5-0.7 0.8-0.7 1.4 0.1 3.9 6.1 10.8 9.4 13 4.9 3.4 14 3.4 16.6 0 1.9-5.3-9-32-21.4-49.4-1.8-2.6-1.3-6.2 1.3-8s6.2-1.3 8 1.3c6.1 8.5 13 21.1 17.6 32.2 8.5 20.2 6.3 27.1 3.9 30.5-3.8 5-10.4 7.3-17.1 7.3z" fill="%%COLOR%%"/>
<path d="m278.4 107.1c-3.4 0-6.8-0.8-9.3-2-2.9-1.4-4.1-4.8-2.8-7.6 1.3-2.9 4.8-4.1 7.6-2.8 2.2 1 7 1.6 8.3-0.6 0.5-1.4 0.4-8.2-5.6-23.9-4.1-11-9.8-22.4-13.4-27.3-1.9-2.5-1.4-6.1 1.2-8 2.5-1.9 6.1-1.4 8 1.2 4.4 5.9 10.7 18.7 15.3 31 9.1 24.5 5.7 30.6 4.5 32.7-2.9 5.4-8.4 7.3-13.8 7.3z" fill="%%COLOR%%"/>
<path d="m288.2 96.6c-2.8 0-5.3-2.1-5.7-5-0.4-3.1 1.8-6 4.9-6.5 1-0.1 1.9-0.2 2.9-0.3 4-0.4 5.3-0.7 6.1-1.8 0.5-1.2 0.6-7.2-4.3-21-3.4-9.6-8.3-20.3-12-26-1.7-2.7-0.9-6.2 1.7-7.9 2.7-1.7 6.2-0.9 7.9 1.7 4.3 6.7 9.8 18.8 13.5 29.3 7 20.1 4.9 26.8 2.8 30.1-3.9 5.9-10.1 6.6-14.6 7-0.8 0.1-1.6 0.2-2.5 0.3-0.2 0.1-0.5 0.1-0.7 0.1z" fill="%%COLOR%%"/>
<path d="m301.9 107.8c-2.6 0-5.1-0.8-7.3-2.4-5.3-4-6.6-11.7-6.6-15.1 0-3.2 2.6-5.7 5.7-5.7 3.2 0 5.7 2.6 5.7 5.8 0 1.7 0.9 5 2.1 5.9 0.1 0.1 0.2 0.2 0.9 0 2-1.1 4.2-10.6 4.4-18.7 0-3.2 2.6-5.7 5.8-5.7s5.7 2.7 5.7 5.8c-0.1 6.1-1.3 26.4-12.8 29.6-1.2 0.3-2.5 0.5-3.6 0.5z" fill="%%COLOR%%"/>
<path d="m343.8 364.8c-1.8 0-3.7-0.5-5.4-1.6-29-18.6-56.5-14.3-91.4-8.9-17.9 2.8-36.5 5.7-57.2 5.7-36.5 0-77.7-7.2-113-19.8-51.4-18.4-67.4-39.4-72.3-50.4-8.9-19.6 0.7-50 7.2-66.4 10.8-27.3 28-54.8 48.2-77.3 31.3-34.8 81-83.8 110.1-105.6 15.4-11.5 41.6-20.6 85-35.8 21.5-7.5 42.3-10.9 60.7 29.3l0.8 1.7c6.2 13.5 14.7 32.1 6.8 44.6-6 9.4-16 11-19.3 11.5-5.5 0.8-10.6-2.9-11.4-8.4s2.9-10.6 8.4-11.4c3.9-0.6 4.9-1.5 5.4-2.3 0.1-0.3 0.7-2.8-1.4-9.5-1.7-5.5-4.4-11.4-6.6-16.1l-0.8-1.7c-5.7-12.6-11.4-19.9-16.9-21.7-4.4-1.5-10.1-0.1-19 3-41.6 14.5-66.7 23.2-79.6 32.9-28.1 21.1-76.6 68.9-107.3 103-18.6 20.4-34.8 46.4-44.6 71.2-10.5 26.5-10.8 43.6-7.6 50.7 6.1 13.5 28.9 28.4 60.9 39.8 33.2 11.9 72 18.7 106.3 18.7 19.2 0 37-2.8 54.2-5.4 35.9-5.6 69.9-10.9 105.3 11.8 4.6 3 6 9.2 3 13.8-2 3-5.2 4.6-8.5 4.6z" fill="%%COLOR%%"/>
<path d="m235.7 103.5h-0.1c-1 0-23.8-0.3-43-5.8-5.3-1.5-8.4-7-6.9-12.3s7-8.4 12.3-6.9c16.6 4.7 37.5 5 37.7 5 5.5 0.1 9.9 4.6 9.9 10.1s-4.4 9.9-9.9 9.9z" fill="%%COLOR%%"/>
</svg>
