<svg xmlns="http://www.w3.org/2000/svg" width="16" height="16" fill="none" xmlns:v="https://vecta.io/nano"><path d="M12.25 1.135a.46.46 0 0 1 0 .654L9.689 4.35a.46.46 0 0 1-.164.106c-.969.365-3.258 1.773-4.369 4.379a.46.46 0 0 1-.098.146l-1.743 1.743-.001.001-1.524 1.524a.46.46 0 1 1-.654-.654l1.609-1.609c.041-3.175 1.32-5.155 2.964-6.309C7.273 2.58 9.122 2.26 10.432 2.299l1.163-1.163a.46.46 0 0 1 .654 0zm-6.01 3.3c1.029-.722 2.214-1.063 3.23-1.173l-.366.366c-1.169.473-3.55 1.998-4.762 4.762l-.613.613c.257-2.299 1.293-3.713 2.51-4.567zm7.971-.685l-2.523 2.523c-.048.048-.085.105-.108.169-.343.945-1.691 3.171-4.233 4.221a.46.46 0 0 0-.15.1l-1.702 1.702-.001.001-1.743 1.743a.46.46 0 1 0 .654.654l1.524-1.524.001-.002.083-.083c3.175-.04 5.155-1.32 6.309-2.964 1.098-1.564 1.418-3.414 1.379-4.724l1.163-1.163a.46.46 0 1 0-.654-.654zm-1.799 3.106l.326-.326c-.11 1.016-.451 2.202-1.173 3.23-.855 1.218-2.268 2.253-4.567 2.51l.789-.789c2.705-1.154 4.173-3.475 4.625-4.625z" fill-rule="evenodd" fill="%%COLOR%%"/><path d="M10.942 5.712c.181-.181.181-.473 0-.654s-.473-.181-.654 0L5.494 9.852c-.181.181-.181.473 0 .654a.46.46 0 0 0 .654 0l4.794-4.794z" fill="%%COLOR%%"/></svg>
