<svg xmlns="http://www.w3.org/2000/svg" width="16" height="16" fill="%%COLOR%%" xmlns:v="https://vecta.io/nano"><path fill-rule="evenodd" d="M6.189 1.865c0 1.03-.835 1.865-1.865 1.865s-1.865-.835-1.865-1.865S3.293 0 4.323 0s1.865.835 1.865 1.865zm-.808 0c0 .584-.473 1.057-1.057 1.057s-1.057-.473-1.057-1.057S3.74.808 4.323.808s1.057.473 1.057 1.057z"/><path d="M5.821 4.929h.404v-.808h-.404c-1.268 0-2.209.097-2.904.283l-.076.021a.4.4 0 0 0-.187.057c-.558.184-.959.443-1.227.787-.309.396-.398.849-.421 1.278-.011.214-.006.433.001.643l.004.127.012.503c0 .223.181.404.404.404s.404-.181.404-.404l-.013-.538-.004-.119-.002-.574c.018-.352.088-.614.251-.823a1.28 1.28 0 0 1 .394-.324v8.208c0 .223.181.404.404.404s.404-.181.404-.404v-3.531h2.258c.223 0 .404-.181.404-.404s-.181-.404-.404-.404H3.266V5.149c.59-.138 1.412-.22 2.555-.22z"/><path d="M8.407 6.384a1.74 1.74 0 0 0 1.737-1.737A1.74 1.74 0 0 0 8.407 2.91 1.74 1.74 0 0 0 6.67 4.646a1.74 1.74 0 0 0 1.737 1.737zm0-.808a.93.93 0 0 0 .929-.929.93.93 0 0 0-.929-.929.93.93 0 0 0-.929.929.93.93 0 0 0 .929.929zM6.672 7.394l-.002-.04c0-.223.181-.404.404-.404h2.667a.4.4 0 0 1 .323.162c.098.074.162.191.162.323v8.162c0 .223-.181.404-.404.404s-.404-.181-.404-.404v-2.101h-1.94v2.101c0 .223-.181.404-.404.404s-.404-.181-.404-.404V7.434a.41.41 0 0 1 .002-.04zm2.745.364v4.929H7.478V7.758h1.939zm3.034-4.028c-1.03 0-1.865-.835-1.865-1.865S11.421 0 12.451 0s1.865.835 1.865 1.865-.835 1.865-1.865 1.865zm0-.808c-.584 0-1.057-.473-1.057-1.057S11.867.808 12.451.808s1.057.473 1.057 1.057-.473 1.057-1.057 1.057z" fill-rule="evenodd"/><path d="M10.549 4.929h.404c1.143 0 1.965.082 2.555.22v6.262H11.25c-.223 0-.404.181-.404.404s.181.404.404.404h2.258v1.43c0 .223.181.404.404.404s.404-.181.404-.404V5.442a1.28 1.28 0 0 1 .394.324c.163.209.233.471.251.823.009.177.005.365-.002.574l-.004.116v.002h0l-.013.538c0 .223.181.404.404.404s.404-.181.404-.404l.012-.503v-.002l.004-.125.001-.643c-.023-.429-.112-.882-.421-1.278-.268-.344-.668-.603-1.227-.787a.4.4 0 0 0-.187-.057l-.076-.021c-.695-.185-1.636-.283-2.904-.283h-.404v.808z"/></svg>
