<svg xmlns="http://www.w3.org/2000/svg" width="16" height="16" fill="%%COLOR%%" xmlns:v="https://vecta.io/nano"><path d="M8.105 1.001c-.658.045-1.611.281-2.186.926a1.86 1.86 0 0 0-.476 1.322c.013.532.219 1.131.642 1.808a.402.402 0 0 0 .681-.426c-.376-.602-.511-1.062-.52-1.402a1.06 1.06 0 0 1 .272-.767c.364-.408 1.047-.615 1.621-.658.574.043 1.257.25 1.621.658a1.06 1.06 0 0 1 .272.767c-.009.341-.144.8-.52 1.402a.402.402 0 1 0 .681.426c.423-.677.628-1.277.642-1.808a1.86 1.86 0 0 0-.476-1.322c-.576-.645-1.529-.881-2.187-.926L8.142 1l-.036.001zm.034 6.31a.4.4 0 0 1 .402.402v.182c.924.045 1.833.244 2.63.599a.402.402 0 1 1-.326.734c-.694-.309-1.492-.485-2.304-.528v.914c1.116.038 2.218.235 3.18.592a.402.402 0 1 1-.279.753c-.873-.324-1.88-.504-2.902-.541v.92c.924.045 1.833.244 2.63.599a.402.402 0 0 1-.326.734c-.694-.309-1.492-.485-2.304-.528v1.309a.401.401 0 1 1-.803 0v-1.309c-.812.044-1.61.22-2.304.528a.402.402 0 0 1-.326-.734c.797-.354 1.707-.554 2.63-.599v-.92c-1.022.037-2.028.218-2.901.541a.402.402 0 1 1-.279-.753c.963-.356 2.064-.554 3.18-.592V8.7c-.812.044-1.61.22-2.304.528a.402.402 0 1 1-.326-.734c.797-.354 1.707-.554 2.63-.599v-.182a.4.4 0 0 1 .402-.402z"/><path fill-rule="evenodd" d="M2 6.566a.4.4 0 0 1 .402-.402h11.475a.4.4 0 0 1 .402.402v8.033a.4.4 0 0 1-.402.402H2.402A.4.4 0 0 1 2 14.598V6.566zm.803.402v7.229h10.672V6.967H2.803z"/></svg>
