<svg xmlns="http://www.w3.org/2000/svg" width="16" height="16" fill="none" xmlns:v="https://vecta.io/nano"><path fill-rule="evenodd" d="M7.368 6.578l2.076-4.593a.42.42 0 0 1 .166-.165c.042-.02.074-.018.096-.011.034.011.144.076.144.318 0 .067-.028.279-.094.625l-.267 1.21c-.226.922-.532 1.986-.853 2.801l-.01.027a1.21 1.21 0 0 0-.353-.052c-.682 0-1.235.565-1.235 1.262s.553 1.262 1.235 1.262S9.508 8.697 9.508 8c0-.292-.097-.561-.26-.775a.4.4 0 0 0 .042-.04l.907-1.039.824-.948.811-.897.259-.257.002-.001c.049.003.07.009.089.019s.07.041.145.166c-.022.113-.082.297-.196.552-.14.313-.334.677-.548 1.049l-1.168 1.869a.41.41 0 0 0 .047.507c.132.136.339.158.496.052l.017-.011.048-.032.175-.117.564-.372 1.144-.703a.29.29 0 0 1 .166-.029c.058.007.101.029.125.049.011.01.016.017.018.02v.002.001.001.002.002a.29.29 0 0 1-.052.105c-.567.766-1.052 1.245-1.603 1.788l-.474.473c-.056.056-.093.128-.109.206l-.022.114c-.133.682-.233 1.191-.424 1.593-.111.233-.253.428-.462.588-.04-.661-.577-1.184-1.233-1.184-.682 0-1.235.565-1.235 1.262s.553 1.262 1.235 1.262l.072-.002-.553 1.144c-.096.199-.016.44.179.538a.39.39 0 0 0 .526-.182l.901-1.866c.632-.264 1.021-.674 1.275-1.208.238-.5.357-1.109.481-1.747l.007-.034.364-.362c.558-.55 1.094-1.079 1.701-1.899.15-.203.231-.435.208-.674a.84.84 0 0 0-.3-.562c-.297-.252-.755-.318-1.142-.122a7.85 7.85 0 0 0-.505.292l.211-.358.586-1.123c.147-.329.276-.684.276-.97a.41.41 0 0 0-.042-.181c-.147-.298-.323-.505-.549-.62-.208-.106-.413-.105-.531-.105h-.016c-.09 0-.159.03-.187.043-.036.017-.066.036-.089.051-.045.031-.091.069-.134.107l-.305.301-.833.922-.453.519.269-1.024.276-1.251c.063-.331.108-.62.108-.779 0-.513-.264-.952-.702-1.087-.448-.139-.904.092-1.173.547-.008.013-.014.026-.021.04L7.356 4.689l-.092-1.121-.165-1.036c-.033-.139-.071-.269-.115-.379-.04-.099-.103-.23-.211-.327-.343-.308-.732-.375-1.078-.251a1.25 1.25 0 0 0-.678.622 1.2 1.2 0 0 0-.092.422l-.013.521.041 1.358.004.116.054 2.691-1.183-1.408c-.034-.04-.074-.073-.12-.096-.289-.15-.585-.192-.859-.119a1.09 1.09 0 0 0-.624.46 1.41 1.41 0 0 0-.036 1.468c.218.474.589 1.11.95 1.729l.213.366.582 1.046c.166.322.27.564.307.715.09.366.159.975.204 1.597l.065 1.535c0 .222.176.402.393.402s.393-.18.393-.402l-.067-1.595-.179-1.519a1.21 1.21 0 0 0 .414.073c.682 0 1.235-.565 1.235-1.262s-.553-1.262-1.235-1.262c-.514 0-.955.321-1.141.777l-.295-.515-.221-.381-.916-1.666c-.007-.015-.015-.03-.024-.045a.59.59 0 0 1 .007-.612c.05-.075.111-.117.172-.134.05-.013.128-.017.241.028l1.782 2.12c.104.124.271.171.423.119a.4.4 0 0 0 .267-.355c.077-1.243.026-2.655-.017-3.788l-.004-.11-.04-1.338.011-.454.015-.127a.45.45 0 0 1 .23-.221.21.21 0 0 1 .119-.009c.038.008.094.03.164.09.004.008.011.022.02.044a1.9 1.9 0 0 1 .078.262c.055.234.106.554.149.938.085.767.135 1.756.135 2.752a.4.4 0 0 0 .309.392.39.39 0 0 0 .441-.224zm1.017 5.438c0-.254.201-.459.449-.459s.449.206.449.459-.201.459-.449.459-.449-.206-.449-.459zm-.112-4.475c-.248 0-.449.205-.449.459s.201.459.449.459.449-.206.449-.459-.201-.459-.449-.459zm-3.257 2.754c0-.253.201-.459.449-.459s.449.205.449.459-.201.459-.449.459-.449-.206-.449-.459z" fill="%%COLOR%%"/></svg>
