<svg xmlns="http://www.w3.org/2000/svg" width="16" height="16" fill="none" xmlns:v="https://vecta.io/nano"><path fill-rule="evenodd" d="M11.5 8.047c1.222 0 2.222-.878 2.451-2.023H16v-1h-2.049C13.722 3.878 12.722 3 11.5 3s-2.222.878-2.451 2.023H0v1h9.049c.229 1.145 1.228 2.023 2.451 2.023zM13 5.523c0 .841-.672 1.523-1.5 1.523S10 6.365 10 5.523 10.672 4 11.5 4s1.5.682 1.5 1.523zm-6.049 5.578c-.229 1.145-1.228 2.023-2.451 2.023s-2.222-.879-2.451-2.023H0v-1h2.049C2.278 8.957 3.278 8.078 4.5 8.078s2.222.878 2.451 2.023H16v1H6.951zm-.951-.5c0 .841-.672 1.523-1.5 1.523S3 11.443 3 10.602s.672-1.523 1.5-1.523S6 9.76 6 10.602z" fill="%%COLOR%%"/></svg>