<svg xmlns="http://www.w3.org/2000/svg" width="16" height="16" fill="none" xmlns:v="https://vecta.io/nano"><path fill-rule="evenodd" d="M12.036 12.691V2.764h1.2v9.927h-1.2zm-.764-10.145c0-.301.244-.545.545-.545h1.636c.301 0 .546.244.546.545v10.364c0 .301-.244.545-.546.545h-1.636c-.301 0-.545-.244-.545-.545V2.545zM6.145 7.455c0 .482-.391.873-.873.873S4.4 7.937 4.4 7.455s.391-.873.873-.873.873.391.873.873zm.764 0c0 .904-.733 1.636-1.636 1.636s-1.636-.733-1.636-1.636.733-1.636 1.636-1.636 1.636.733 1.636 1.636zm.545 2.753l-.221-.111C6.567 9.795 5.786 9.7 5.27 9.7s-1.296.095-1.963.397S2 10.957 2 11.896v1.134c0 .211.171.382.382.382s.382-.171.382-.382v-1.134c0-.513.325-.862.859-1.104s1.201-.329 1.648-.329 1.111.086 1.648.329a1.86 1.86 0 0 1 .536.348v-.933zm1.309 2.484V7.673h1.2v5.018h-1.2zM8 7.455c0-.301.244-.545.545-.545h1.636c.301 0 .545.244.545.545v5.455c0 .301-.244.545-.545.545H8.545c-.301 0-.545-.244-.545-.545V7.455z" fill="%%COLOR%%"/></svg>
