<svg xmlns="http://www.w3.org/2000/svg" width="16" height="16" fill="%%COLOR%%" xmlns:v="https://vecta.io/nano"><path d="M6.087 1.428c.022-.212-.131-.403-.344-.425s-.403.131-.426.344l.385.041-.385-.041v.002.004l-.001.012-.004.043-.011.156-.012.546c.004.448.044 1.053.191 1.666s.406 1.254.87 1.752c.476.51 1.145.841 2.047.841.272 0 .453.079.578.189.131.115.234.294.294.542.123.506.047 1.214-.209 1.908s-.664 1.304-1.134 1.643a1.39 1.39 0 0 1-.701.28c-.235.019-.489-.034-.772-.204-.802-.481-1.608-.57-2.373-.323-.748.242-1.417.794-1.996 1.518a.39.39 0 0 0 .06.544c.166.134.41.106.544-.06.526-.657 1.078-1.086 1.631-1.265.536-.174 1.111-.125 1.736.25.408.245.824.344 1.231.312a2.16 2.16 0 0 0 1.093-.424c.634-.457 1.118-1.219 1.407-2.003s.406-1.654.234-2.359c-.087-.357-.254-.692-.534-.939s-.654-.383-1.09-.383c-.69 0-1.154-.244-1.481-.595-.339-.363-.554-.866-.684-1.405s-.166-1.079-.17-1.492l.011-.495.009-.136.003-.034.001-.008v-.001zm1.383-.041c0-.214-.173-.387-.387-.387s-.387.173-.387.387l.063 1.509c.045.392.122.718.26.974a1.15 1.15 0 0 0 .628.554c.25.093.532.112.817.112a.39.39 0 0 0 .333-.189c.705-1.187 1.425-1.724 2.06-1.814.613-.087 1.303.226 2.01 1.133.736.944 1.334 2.628 1.358 4.335.024 1.701-.519 3.335-1.95 4.292-1.474.985-3.029 1.067-4.315.835-1.297-.234-2.286-.781-2.579-1-.189-.141-.399-.226-.626-.236a1.16 1.16 0 0 0-.621.158c-.36.201-.679.573-.965 1.002-.118.178-.07.418.107.536s.418.071.536-.107c.267-.401.503-.646.698-.755.091-.051.158-.063.209-.061s.113.02.197.083c.39.291 1.491.887 2.905 1.142 1.424.256 3.198.172 4.882-.954 1.727-1.154 2.32-3.092 2.294-4.946-.026-1.848-.666-3.702-1.522-4.8-.79-1.013-1.726-1.565-2.729-1.423-.93.131-1.773.842-2.497 1.99-.149-.009-.254-.028-.334-.057-.092-.034-.158-.086-.218-.197-.069-.128-.131-.34-.172-.696s-.058-.813-.058-1.421zm6.078 7.183c0-.214-.173-.387-.387-.387s-.387.173-.387.387c0 .98-.488 1.939-1.444 2.417-.191.095-.268.328-.173.519s.328.269.519.173c1.254-.627 1.871-1.879 1.871-3.109z"/></svg>
