<svg xmlns="http://www.w3.org/2000/svg" width="16" height="16" fill="%%COLOR%%" xmlns:v="https://vecta.io/nano"><path d="M2.97 2.62c-.11.01-.22-.04-.29-.14-.1-.14-.07-.35.08-.45l1.01-.72h0L4.3.94h0L5.31.22c.14-.1.35-.07.45.08s.07.35-.08.45l-1.01.72.75 1.06 1.97-1.4c.14-.1.35-.07.45.08s.07.35-.08.45L3.31 4.83c-.05.04-.11.05-.17.06-.11.01-.22-.04-.29-.14-.1-.14-.07-.35.08-.45L4.9 2.91l-.75-1.06-1.01.72c-.05.04-.11.05-.17.06z"/><path fill-rule="evenodd" d="M13.76 15.45h0c.11.16.33.19.49.08s.2-.33.08-.49l-.99-1.4.67-2.66c.05-.21.01-.44-.12-.62L8.46 2.7c-.24-.34-.71-.42-1.05-.18L4.22 4.77c-.16.12-.27.29-.31.49s.01.4.13.56l5.44 7.67c.13.18.33.29.55.32l2.74.25.99 1.4h0zM6.35 7.94l1.43 2.02 2-1.42c.15-.1.35-.07.45.08s.07.35-.08.45l-2 1.42 1.86 2.63c.02.02.05.04.08.05l2.65.24.65-2.58c.01-.03 0-.06-.02-.09L7.93 3.06c-.03-.05-.1-.06-.15-.03L4.6 5.3h0c-.03.02-.04.05-.04.07s0 .05.02.08l1.39 1.97 2-1.42c.15-.1.35-.07.45.08s.07.35-.08.45l-2 1.42z"/></svg>