<svg width="16" height="14" viewBox="0 0 16 14" fill="%%COLOR%%" xmlns="http://www.w3.org/2000/svg">
<path d="M11.5 14C11.7761 14 12 13.7761 12 13.5V1.70711L15.1464 4.85355C15.3417 5.04882 15.6583 5.04882 15.8536 4.85355C16.0488 4.65829 16.0488 4.34171 15.8536 4.14645L11.8536 0.146446C11.6583 -0.0488157 11.3417 -0.0488157 11.1464 0.146446L7.14645 4.14645C6.95118 4.34171 6.95118 4.65829 7.14645 4.85355C7.34171 5.04882 7.65829 5.04882 7.85355 4.85355L11 1.70711V13.5C11 13.7761 11.2239 14 11.5 14Z"/>
<path d="M4.5 0C4.77614 0 5 0.223858 5 0.5V12.2929L8.14645 9.14645C8.34171 8.95118 8.65829 8.95118 8.85355 9.14645C9.04882 9.34171 9.04882 9.65829 8.85355 9.85355L4.85355 13.8536C4.65829 14.0488 4.34171 14.0488 4.14645 13.8536L0.146447 9.85355C-0.0488155 9.65829 -0.0488155 9.34171 0.146447 9.14645C0.341709 8.95118 0.658292 8.95118 0.853554 9.14645L4 12.2929V0.5C4 0.223858 4.22386 0 4.5 0Z"/>
</svg>
