<svg viewBox="0 0 119 123" xmlns="http://www.w3.org/2000/svg">
<path d="m114.6 74.1c-0.77-1.4-1.91-2.47-3.22-3.18l1.88-1.03c1.92-1.06 3.23-2.8 3.8-4.75 0.57-1.96 0.39-4.13-0.66-6.05v-0.01c-0.78-1.42-1.99-2.57-3.44-3.28l1.51-0.83c1.92-1.06 3.23-2.8 3.8-4.75 0.57-1.96 0.39-4.13-0.66-6.05s-2.8-3.23-4.75-3.79c-1.96-0.57-4.13-0.39-6.05 0.66l-1.54 0.85c0.15-1.53-0.15-3.12-0.94-4.57-1.05-1.92-2.8-3.23-4.75-3.8-1.96-0.57-4.13-0.39-6.05 0.66l-7.92 4.36c-0.85-1.86-2.32-3.45-4.3-4.41h-0.01c-1.68-0.81-3.56-1.09-5.4-0.8l0.87-1.78c1.1-2.26 1.18-4.76 0.41-6.97-0.76-2.21-2.37-4.13-4.63-5.23s-4.76-1.18-6.97-0.41c-2.21 0.76-4.13 2.37-5.23 4.62l-0.88 1.81c-0.88-1.53-2.21-2.83-3.91-3.66-2.26-1.1-4.76-1.18-6.97-0.41-2.21 0.76-4.13 2.37-5.23 4.63l-19 38.99c-0.43 0.63-0.82 1.29-1.16 1.98l-1.12 2.29-0.11-0.29c-0.77-2.01-1.47-4.07-1.74-4.84-1.79-5.21-5.2-7.79-8.65-8.29-1.56-0.23-3.1-0.03-4.51 0.53s-2.68 1.49-3.7 2.73c-2.41 2.93-3.37 7.63-1.04 13.32l0.03 0.1 0.01 0.02c2.47 7.27 8.27 29.5 14.65 36.5 7.89 8.66 28.31 16.78 39.3 12.91 6.06-2.13 11.32-6.59 14.36-12.83l1.13-2.32c13.22-7.27 26.43-14.55 39.66-21.83 1.92-1.05 3.23-2.8 3.79-4.75 0.57-1.95 0.4-4.13-0.66-6.05zm-28.17-31.91c2.93-1.6 5.88-3.21 8.83-4.84 1.04-0.57 2.23-0.67 3.3-0.36s2.02 1.02 2.59 2.07c0.57 1.04 0.67 2.23 0.36 3.3s-1.02 2.02-2.07 2.59l-8.98 4.94c-0.29-0.18-0.58-0.35-0.9-0.5-1.65-0.8-3.43-1.06-5.13-0.84l1.08-2.21c0.65-1.34 0.94-2.76 0.92-4.15zm6.79 10.45 15.32-8.43c1.04-0.57 2.23-0.67 3.3-0.36s2.02 1.02 2.59 2.07c0.57 1.04 0.67 2.23 0.36 3.3s-1.02 2.02-2.07 2.59l-19.37 10.65 0.42-0.87c1.1-2.26 1.18-4.76 0.41-6.97-0.23-0.69-0.56-1.36-0.96-1.98zm-2.77 15.78 16.88-9.29c1.04-0.57 2.23-0.67 3.3-0.36s2.02 1.02 2.59 2.07c0.57 1.04 0.67 2.23 0.36 3.3s-1.02 2.02-2.07 2.59l-22.78 12.53 1.74 3.17 15.07-8.29c1.04-0.57 2.23-0.67 3.3-0.36s2.02 1.02 2.59 2.07c0.57 1.04 0.67 2.23 0.36 3.3s-1.02 2.02-2.07 2.59c-11.72 6.45-23.44 12.9-35.16 19.35l15.89-32.67zm-23.5 38.82c-2.55 5.23-6.94 8.97-12.01 10.75-9.36 3.3-28.17-4.45-34.87-11.8-5.69-6.24-11.96-29.67-13.78-35.04-0.02-0.09-0.06-0.19-0.09-0.28l-1.92 0.79 1.91-0.79c-1.7-4.1-1.16-7.32 0.4-9.21 0.57-0.69 1.26-1.2 2.02-1.5s1.57-0.41 2.38-0.29c2.04 0.3 4.12 2.01 5.34 5.54 0.28 0.81 1.02 2.96 1.79 4.97 0.72 1.89 1.51 3.75 2.16 4.69 0.2 0.35 0.51 0.63 0.88 0.81h1.83l4.02-7.14c6.67-13.74 13.35-27.22 20.07-41.01 0.6-1.23 1.65-2.1 2.86-2.52s2.57-0.38 3.8 0.22 2.1 1.65 2.52 2.85c0.42 1.21 0.38 2.57-0.22 3.8l-13.03 26.77 3.86 1.88 17.21-35.36c0.6-1.23 1.65-2.1 2.85-2.52 1.21-0.42 2.57-0.38 3.8 0.22s2.1 1.65 2.52 2.86 0.38 2.57-0.22 3.8l-17.21 35.36 3.94 1.92 13.07-26.85c0.6-1.23 1.65-2.1 2.86-2.52s2.57-0.38 3.8 0.22 2.1 1.65 2.52 2.86 0.38 2.57-0.22 3.8l-13.08 26.84 3.73 1.82 8.64-17.76c0.6-1.23 1.64-2.1 2.85-2.52s2.57-0.38 3.8 0.22 2.1 1.65 2.52 2.86c0.41 1.21 0.38 2.57-0.22 3.8-7.69 15.82-15.38 31.64-23.08 47.46zm16.21-92.71c-0.01 1.36-1.12 2.46-2.48 2.44-1.36-0.01-2.46-1.12-2.44-2.48l0.06-11.91c0.01-1.36 1.12-2.46 2.48-2.44 1.36 0.01 2.46 1.12 2.44 2.48l-0.06 11.91zm12.98-0.16c-0.54 1.25-2 1.82-3.25 1.28s-1.82-2-1.28-3.25l4.78-10.91c0.54-1.25 2-1.82 3.25-1.28s1.82 2 1.28 3.25l-4.78 10.91zm4.86 11.68c-1.11 0.79-2.65 0.54-3.44-0.57s-0.54-2.65 0.57-3.44l10.99-7.88c1.11-0.79 2.65-0.54 3.44 0.57s0.54 2.65-0.57 3.44l-10.99 7.88z" fill="%%COLOR%%"/>
</svg>
