<svg viewBox="0 0 96 105" xmlns="http://www.w3.org/2000/svg">
<path d="m77.6 30.2c-8.2 0-14.8-6.6-14.8-14.8 0-8.2 6.6-14.8 14.8-14.8s14.8 6.6 14.8 14.8c0 8.2-6.7 14.8-14.8 14.8zm0-25.7c-6.2 0-10.9 5.1-10.9 10.9 0 5.8 5.1 10.9 10.9 10.9s10.9-5.1 10.9-10.9c0-5.8-5.1-10.9-10.9-10.9z" fill="%%COLOR%%"/>
<path d="m83 104.1h-10.9c-0.8 0-1.6-0.8-1.9-1.6l-3.5-28h-5.8c-1.2 0-1.9-0.8-1.9-1.9v-27.3c0-4.3 2.3-8.2 6.2-10.1 1.6-0.8 3.5-1.2 5.1-1.2h14c1.9 0 3.5 0.4 5.1 1.2 3.9 1.9 6.2 5.8 6.2 10.1v27.2c0 1.2-0.8 1.9-1.9 1.9h-5.8l-3.5 28c0.2 0.9-0.6 1.7-1.4 1.7zm-9.3-3.9h7.8l3.5-28c0-0.8 0.8-1.6 1.9-1.6h5.4v-25.3c0-3.1-1.6-5.8-4.3-7-1.2-0.4-2.3-0.8-3.5-0.8h-14c-1.2 0-2.3 0.4-3.5 0.8-2.7 1.2-4.3 3.9-4.3 7v25.3h5.4c0.8 0 1.6 0.8 1.9 1.6l3.7 28z" fill="%%COLOR%%"/>
<path d="m40.6 44.9c-6.2 0-10.9-5.1-10.9-10.9s5.1-10.9 10.9-10.9 10.9 5.1 10.9 10.9-4.7 10.9-10.9 10.9zm0-18.2c-3.9 0-7.4 3.1-7.4 7.4s3.1 7.4 7.4 7.4 7.4-3.1 7.4-7.4-3.5-7.4-7.4-7.4z" fill="%%COLOR%%"/>
<path d="m44.1 104.1h-7.4c-0.8 0-1.6-0.8-1.9-1.6l-3.1-24.5h-3.9c-1.2 0-1.9-0.8-1.9-1.9v-18.3c0-3.5 1.9-6.6 5.1-8.2 1.2-0.8 2.7-1.2 4.3-1.2h10.9c1.6 0 2.7 0.4 4.3 1.2 3.1 1.6 5.1 4.7 5.1 8.2v18.3c0 1.2-0.8 1.9-1.9 1.9h-4.3l-3.1 24.1c-0.2 1.2-1 2-2.2 2zm-5.4-3.9h4.3l3.1-24.1c0-0.8 0.8-1.6 1.9-1.6h3.9v-16.3c0-2.3-1.2-4.3-3.1-5.1-0.8-0.4-1.6-0.8-2.7-0.8h-10.9c-0.8 0-1.6 0.4-2.7 0.8-1.9 0.8-3.1 2.7-3.1 5.1v16.3h3.9c0.8 0 1.6 0.8 1.9 1.6l3.5 24.1z" fill="%%COLOR%%"/>
<path d="m11.1 59.7c-3.9 0-7.4-3.1-7.4-7.4 0-3.9 3.1-7.4 7.4-7.4s7.4 3.5 7.4 7.4c0 4.3-3.2 7.4-7.4 7.4zm0-10.9c-1.9 0-3.5 1.6-3.5 3.5s1.6 3.9 3.5 3.9 3.5-1.6 3.5-3.5-1.2-3.9-3.5-3.9z" fill="%%COLOR%%"/>
<path d="m13.8 104.1h-5.1c-0.8 0-1.6-0.8-1.9-1.6l-2.3-17.1h-2.4c-1.2 0-1.9-0.8-1.9-1.9v-13.3c0-2.7 1.6-5.1 3.9-6.6 1.2-0.4 1.9-0.8 3.1-0.8h7.8c1.2 0 2.3 0.4 3.1 0.8 2.3 1.2 3.9 3.5 3.9 6.6v13.2c0 1.2-0.8 1.9-1.9 1.9h-1.9l-2.3 16.7c-0.6 1.3-1.3 2.1-2.1 2.1zm-3.5-3.9h1.9l2.3-16.7c0-0.8 0.8-1.6 1.9-1.6h2.3v-11.3c0-1.2-0.8-2.7-1.9-3.1-0.4-0.4-1.2-0.4-1.6-0.4h-7.8c-0.4 0-1.2 0-1.6 0.4-1.2 0.8-1.9 1.9-1.9 3.1v11.3h2.3c0.8 0 1.6 0.8 1.9 1.6l2.2 16.7z" fill="%%COLOR%%"/>
</svg>
