<svg viewBox="0 0 465 465" xmlns="http://www.w3.org/2000/svg">
<path d="m127 338h281.4l-68.2-68.2c-4.7-4.7-4.7-12.3 0-17l5.7-5.7c4.7-4.7 12.3-4.7 17 0l98.3 98.3c4.7 4.7 4.7 12.3 0 17l-98.3 98.3c-4.7 4.7-12.3 4.7-17 0l-5.7-5.7c-4.7-4.7-4.7-12.3 0-17l68.2-68.2h-289.4c-13.3 0-24-10.7-24-24" fill="%%COLOR%%"/>
<path d="m387.5 341.5c-2.3-2.3-5.3-3.5-8.5-3.5h-252v-281.4l68.2 68.2c4.7 4.7 12.3 4.7 17 0l5.7-5.7c4.7-4.7 4.7-12.3 0-17l-98.3-98.3c-4.7-4.7-12.3-4.7-17 0l-98.3 98.3c-4.7 4.7-4.7 12.3 0 17l5.7 5.7c4.7 4.7 12.3 4.7 17 0l68-68.2v289.4c0 13.3 10.7 24 24 24h268c10.7 0 16-12.9 8.5-20.5l-8-8z" fill="%%COLOR%%"/>
</svg>
